<svg version="1.1" xmlns="http://www.w3.org/2000/svg" viewBox="0 0 1047.4369135318311 326.358071301288" width="1047.4369135318311" height="326.358071301288" filter="invert(93%) hue-rotate(180deg)">
  <!-- svg-source:excalidraw -->
  
  <defs>
    <style class="style-fonts">
      @font-face {
        font-family: "Virgil";
        src: url("https://excalidraw.com/Virgil.woff2");
      }
      @font-face {
        font-family: "Cascadia";
        src: url("https://excalidraw.com/Cascadia.woff2");
      }
    </style>
    
  </defs>
  <rect x="0" y="0" width="1047.4369135318311" height="326.358071301288" fill="#ffffff"></rect><g stroke-linecap="round" transform="translate(21.582275328667038 169.1862021772244) rotate(0 74.22165053843332 31.022778220076816)"><path d="M15.51 0 C61.9 0, 108.29 0, 132.93 0 M15.51 0 C52.55 0, 89.59 0, 132.93 0 M132.93 0 C143.27 0, 148.44 5.17, 148.44 15.51 M132.93 0 C143.27 0, 148.44 5.17, 148.44 15.51 M148.44 15.51 C148.44 23.11, 148.44 30.71, 148.44 46.53 M148.44 15.51 C148.44 27.84, 148.44 40.17, 148.44 46.53 M148.44 46.53 C148.44 56.88, 143.27 62.05, 132.93 62.05 M148.44 46.53 C148.44 56.88, 143.27 62.05, 132.93 62.05 M132.93 62.05 C96.76 62.05, 60.59 62.05, 15.51 62.05 M132.93 62.05 C101.58 62.05, 70.22 62.05, 15.51 62.05 M15.51 62.05 C5.17 62.05, 0 56.88, 0 46.53 M15.51 62.05 C5.17 62.05, 0 56.88, 0 46.53 M0 46.53 C0 40.18, 0 33.83, 0 15.51 M0 46.53 C0 38.38, 0 30.24, 0 15.51 M0 15.51 C0 5.17, 5.17 0, 15.51 0 M0 15.51 C0 5.17, 5.17 0, 15.51 0" stroke="#1e1e1e" stroke-width="1" fill="none"></path></g><g transform="translate(39.5700076922235 183.98232855549224) rotate(0 8.203125 16.80000000000001)"><text x="0" y="0" font-family="Cascadia, Segoe UI Emoji" font-size="28px" fill="#1e1e1e" text-anchor="start" style="white-space: pre;" direction="ltr" dominant-baseline="text-before-edge">A</text></g><g stroke-linecap="round"><g transform="translate(76.41859903222212 170.06093297799828) rotate(0 -0.3070715945000302 30.144603173496307)"><path d="M0 0 C-0.1 10.05, -0.51 50.24, -0.61 60.29 M0 0 C-0.1 10.05, -0.51 50.24, -0.61 60.29" stroke="#1e1e1e" stroke-width="1" fill="none"></path></g></g><mask></mask><g transform="translate(93.26361931159863 182.75404217749224) rotate(0 32.8125 16.80000000000001)"><text x="0" y="0" font-family="Cascadia, Segoe UI Emoji" font-size="28px" fill="#1e1e1e" text-anchor="start" style="white-space: pre;" direction="ltr" dominant-baseline="text-before-edge">next</text></g><g transform="translate(10 10) rotate(0 32.8125 16.80000000000001)"><text x="0" y="0" font-family="Cascadia, Segoe UI Emoji" font-size="28px" fill="#1e1e1e" text-anchor="start" style="white-space: pre;" direction="ltr" dominant-baseline="text-before-edge">HEAD</text></g><g stroke-linecap="round"><g transform="translate(46.10199599091811 47.03843791521024) rotate(0 -0.9330328272121733 56.25375820639215)"><path d="M0 0 C-0.31 18.75, -1.56 93.76, -1.87 112.51 M0 0 C-0.31 18.75, -1.56 93.76, -1.87 112.51" stroke="#1e1e1e" stroke-width="1" fill="none"></path></g><g transform="translate(46.10199599091811 47.03843791521024) rotate(0 -0.9330328272121733 56.25375820639215)"><path d="M-1.87 112.51 L-7.98 98.81 L4.7 99.02 L-1.87 112.51" stroke="none" stroke-width="0" fill="#1e1e1e" fill-rule="evenodd"></path><path d="M-1.87 112.51 C-4.24 107.19, -6.61 101.87, -7.98 98.81 M-1.87 112.51 C-4.19 107.3, -6.52 102.09, -7.98 98.81 M-7.98 98.81 C-4.99 98.86, -2 98.91, 4.7 99.02 M-7.98 98.81 C-5.2 98.86, -2.43 98.9, 4.7 99.02 M4.7 99.02 C3.15 102.2, 1.6 105.39, -1.87 112.51 M4.7 99.02 C3.18 102.15, 1.65 105.28, -1.87 112.51 M-1.87 112.51 C-1.87 112.51, -1.87 112.51, -1.87 112.51 M-1.87 112.51 C-1.87 112.51, -1.87 112.51, -1.87 112.51" stroke="#1e1e1e" stroke-width="1" fill="none"></path></g></g><mask></mask><g stroke-linecap="round" transform="translate(236.8335967051603 169.73130498328294) rotate(0 74.22165053843332 31.022778220076816)"><path d="M15.51 0 C40.4 0, 65.3 0, 132.93 0 M15.51 0 C39.2 0, 62.88 0, 132.93 0 M132.93 0 C143.27 0, 148.44 5.17, 148.44 15.51 M132.93 0 C143.27 0, 148.44 5.17, 148.44 15.51 M148.44 15.51 C148.44 25.99, 148.44 36.46, 148.44 46.53 M148.44 15.51 C148.44 24.89, 148.44 34.26, 148.44 46.53 M148.44 46.53 C148.44 56.88, 143.27 62.05, 132.93 62.05 M148.44 46.53 C148.44 56.88, 143.27 62.05, 132.93 62.05 M132.93 62.05 C103.62 62.05, 74.31 62.05, 15.51 62.05 M132.93 62.05 C96.81 62.05, 60.69 62.05, 15.51 62.05 M15.51 62.05 C5.17 62.05, 0 56.88, 0 46.53 M15.51 62.05 C5.17 62.05, 0 56.88, 0 46.53 M0 46.53 C0 35.24, 0 23.95, 0 15.51 M0 46.53 C0 36.31, 0 26.09, 0 15.51 M0 15.51 C0 5.17, 5.17 0, 15.51 0 M0 15.51 C0 5.17, 5.17 0, 15.51 0" stroke="#1e1e1e" stroke-width="1" fill="none"></path></g><g transform="translate(254.8213290687163 184.52743136155078) rotate(0 8.203125 16.80000000000001)"><text x="0" y="0" font-family="Cascadia, Segoe UI Emoji" font-size="28px" fill="#1e1e1e" text-anchor="start" style="white-space: pre;" direction="ltr" dominant-baseline="text-before-edge">B</text></g><g stroke-linecap="round"><g transform="translate(291.66992040871446 170.60603578405687) rotate(0 -0.3070715945000302 30.144603173496307)"><path d="M0 0 C-0.1 10.05, -0.51 50.24, -0.61 60.29 M0 0 C-0.1 10.05, -0.51 50.24, -0.61 60.29" stroke="#1e1e1e" stroke-width="1" fill="none"></path></g></g><mask></mask><g transform="translate(308.5149406880919 183.29914498355083) rotate(0 32.8125 16.80000000000001)"><text x="0" y="0" font-family="Cascadia, Segoe UI Emoji" font-size="28px" fill="#1e1e1e" text-anchor="start" style="white-space: pre;" direction="ltr" dominant-baseline="text-before-edge">next</text></g><g stroke-linecap="round"><g transform="translate(162.8508409182209 200.7540832033592) rotate(0 35.07389662456512 0.1719308658067007)"><path d="M0 0 C11.69 0.06, 58.46 0.29, 70.15 0.34 M0 0 C11.69 0.06, 58.46 0.29, 70.15 0.34" stroke="#1e1e1e" stroke-width="1" fill="none"></path></g><g transform="translate(162.8508409182209 200.7540832033592) rotate(0 35.07389662456512 0.1719308658067007)"><path d="M70.15 0.34 L56.52 6.62 L56.58 -6.06 L70.15 0.34" stroke="none" stroke-width="0" fill="#1e1e1e" fill-rule="evenodd"></path><path d="M70.15 0.34 C66.55 2, 62.96 3.65, 56.52 6.62 M70.15 0.34 C64.94 2.74, 59.73 5.14, 56.52 6.62 M56.52 6.62 C56.54 3.5, 56.55 0.39, 56.58 -6.06 M56.52 6.62 C56.55 1.94, 56.57 -2.74, 56.58 -6.06 M56.58 -6.06 C60.67 -4.13, 64.76 -2.2, 70.15 0.34 M56.58 -6.06 C60.87 -4.04, 65.15 -2.02, 70.15 0.34 M70.15 0.34 C70.15 0.34, 70.15 0.34, 70.15 0.34 M70.15 0.34 C70.15 0.34, 70.15 0.34, 70.15 0.34" stroke="#1e1e1e" stroke-width="1" fill="none"></path></g></g><mask></mask><g stroke-linecap="round" transform="translate(455.0401071588776 169.73130498328237) rotate(0 74.2216505384331 31.022778220076816)"><path d="M15.51 0 C60.21 0, 104.91 0, 132.93 0 M15.51 0 C41.28 0, 67.04 0, 132.93 0 M132.93 0 C143.27 0, 148.44 5.17, 148.44 15.51 M132.93 0 C143.27 0, 148.44 5.17, 148.44 15.51 M148.44 15.51 C148.44 23.45, 148.44 31.39, 148.44 46.53 M148.44 15.51 C148.44 25.01, 148.44 34.5, 148.44 46.53 M148.44 46.53 C148.44 56.88, 143.27 62.05, 132.93 62.05 M148.44 46.53 C148.44 56.88, 143.27 62.05, 132.93 62.05 M132.93 62.05 C88.2 62.05, 43.48 62.05, 15.51 62.05 M132.93 62.05 C99.49 62.05, 66.05 62.05, 15.51 62.05 M15.51 62.05 C5.17 62.05, 0 56.88, 0 46.53 M15.51 62.05 C5.17 62.05, 0 56.88, 0 46.53 M0 46.53 C0 36.76, 0 26.99, 0 15.51 M0 46.53 C0 34.64, 0 22.75, 0 15.51 M0 15.51 C0 5.17, 5.17 0, 15.51 0 M0 15.51 C0 5.17, 5.17 0, 15.51 0" stroke="#1e1e1e" stroke-width="1" fill="none"></path></g><g transform="translate(473.02783952243317 183.8614725750868) rotate(0 8.203125 16.80000000000001)"><text x="0" y="0" font-family="Cascadia, Segoe UI Emoji" font-size="28px" fill="#1e1e1e" text-anchor="start" style="white-space: pre;" direction="ltr" dominant-baseline="text-before-edge">C</text></g><g stroke-linecap="round"><g transform="translate(509.87643086243315 170.60603578405625) rotate(0 -0.3070715945000302 30.144603173496307)"><path d="M0 0 C-0.1 10.05, -0.51 50.24, -0.61 60.29 M0 0 C-0.1 10.05, -0.51 50.24, -0.61 60.29" stroke="#1e1e1e" stroke-width="1" fill="none"></path></g></g><mask></mask><g transform="translate(526.7214511418088 183.29914498355015) rotate(0 32.8125 16.80000000000001)"><text x="0" y="0" font-family="Cascadia, Segoe UI Emoji" font-size="28px" fill="#1e1e1e" text-anchor="start" style="white-space: pre;" direction="ltr" dominant-baseline="text-before-edge">next</text></g><g stroke-linecap="round"><g transform="translate(381.05735137193824 200.7540832033585) rotate(0 35.07389662456535 0.1719308658067007)"><path d="M0 0 C11.69 0.06, 58.46 0.29, 70.15 0.34 M0 0 C11.69 0.06, 58.46 0.29, 70.15 0.34" stroke="#1e1e1e" stroke-width="1" fill="none"></path></g><g transform="translate(381.05735137193824 200.7540832033585) rotate(0 35.07389662456535 0.1719308658067007)"><path d="M70.15 0.34 L56.52 6.62 L56.58 -6.06 L70.15 0.34" stroke="none" stroke-width="0" fill="#1e1e1e" fill-rule="evenodd"></path><path d="M70.15 0.34 C66 2.25, 61.85 4.17, 56.52 6.62 M70.15 0.34 C66.17 2.17, 62.2 4, 56.52 6.62 M56.52 6.62 C56.54 3.37, 56.55 0.13, 56.58 -6.06 M56.52 6.62 C56.54 2.74, 56.56 -1.14, 56.58 -6.06 M56.58 -6.06 C60.65 -4.14, 64.71 -2.22, 70.15 0.34 M56.58 -6.06 C60.06 -4.42, 63.54 -2.78, 70.15 0.34 M70.15 0.34 C70.15 0.34, 70.15 0.34, 70.15 0.34 M70.15 0.34 C70.15 0.34, 70.15 0.34, 70.15 0.34" stroke="#1e1e1e" stroke-width="1" fill="none"></path></g></g><mask></mask><g stroke-linecap="round" transform="translate(672.3607215385327 170.07516671489554) rotate(0 74.22165053843355 31.022778220076816)"><path d="M15.51 0 C44.44 0, 73.37 0, 132.93 0 M15.51 0 C42.1 0, 68.68 0, 132.93 0 M132.93 0 C143.27 0, 148.44 5.17, 148.44 15.51 M132.93 0 C143.27 0, 148.44 5.17, 148.44 15.51 M148.44 15.51 C148.44 25.3, 148.44 35.08, 148.44 46.53 M148.44 15.51 C148.44 27.74, 148.44 39.97, 148.44 46.53 M148.44 46.53 C148.44 56.88, 143.27 62.05, 132.93 62.05 M148.44 46.53 C148.44 56.88, 143.27 62.05, 132.93 62.05 M132.93 62.05 C107.47 62.05, 82.01 62.05, 15.51 62.05 M132.93 62.05 C105.56 62.05, 78.2 62.05, 15.51 62.05 M15.51 62.05 C5.17 62.05, 0 56.88, 0 46.53 M15.51 62.05 C5.17 62.05, 0 56.88, 0 46.53 M0 46.53 C0 39.99, 0 33.44, 0 15.51 M0 46.53 C0 36.92, 0 27.3, 0 15.51 M0 15.51 C0 5.17, 5.17 0, 15.51 0 M0 15.51 C0 5.17, 5.17 0, 15.51 0" stroke="#1e1e1e" stroke-width="1" fill="none"></path></g><g transform="translate(690.3484539020883 184.20533430670002) rotate(0 8.203125 16.80000000000001)"><text x="0" y="0" font-family="Cascadia, Segoe UI Emoji" font-size="28px" fill="#1e1e1e" text-anchor="start" style="white-space: pre;" direction="ltr" dominant-baseline="text-before-edge">D</text></g><g stroke-linecap="round"><g transform="translate(727.1970452420865 170.94989751566948) rotate(0 -0.3070715945000302 30.144603173496307)"><path d="M0 0 C-0.1 10.05, -0.51 50.24, -0.61 60.29 M0 0 C-0.1 10.05, -0.51 50.24, -0.61 60.29" stroke="#1e1e1e" stroke-width="1" fill="none"></path></g></g><mask></mask><g transform="translate(744.0420655214657 183.64300671516344) rotate(0 32.8125 16.80000000000001)"><text x="0" y="0" font-family="Cascadia, Segoe UI Emoji" font-size="28px" fill="#1e1e1e" text-anchor="start" style="white-space: pre;" direction="ltr" dominant-baseline="text-before-edge">next</text></g><g stroke-linecap="round"><g transform="translate(598.3779657515934 201.0979449349718) rotate(0 35.073896624564895 0.1719308658067007)"><path d="M0 0 C11.69 0.06, 58.46 0.29, 70.15 0.34 M0 0 C11.69 0.06, 58.46 0.29, 70.15 0.34" stroke="#1e1e1e" stroke-width="1" fill="none"></path></g><g transform="translate(598.3779657515934 201.0979449349718) rotate(0 35.073896624564895 0.1719308658067007)"><path d="M70.15 0.34 L56.52 6.62 L56.58 -6.06 L70.15 0.34" stroke="none" stroke-width="0" fill="#1e1e1e" fill-rule="evenodd"></path><path d="M70.15 0.34 C65.04 2.7, 59.93 5.05, 56.52 6.62 M70.15 0.34 C65.68 2.4, 61.21 4.46, 56.52 6.62 M56.52 6.62 C56.54 2.62, 56.56 -1.38, 56.58 -6.06 M56.52 6.62 C56.55 1.62, 56.57 -3.38, 56.58 -6.06 M56.58 -6.06 C59.82 -4.53, 63.06 -3, 70.15 0.34 M56.58 -6.06 C61.99 -3.51, 67.4 -0.95, 70.15 0.34 M70.15 0.34 C70.15 0.34, 70.15 0.34, 70.15 0.34 M70.15 0.34 C70.15 0.34, 70.15 0.34, 70.15 0.34" stroke="#1e1e1e" stroke-width="1" fill="none"></path></g></g><mask></mask><g stroke-linecap="round" transform="translate(888.9936124549649 169.15799829450094) rotate(0 74.2216505384331 31.022778220076816)"><path d="M15.51 0 C43.04 0, 70.56 0, 132.93 0 M15.51 0 C48.21 0, 80.92 0, 132.93 0 M132.93 0 C143.27 0, 148.44 5.17, 148.44 15.51 M132.93 0 C143.27 0, 148.44 5.17, 148.44 15.51 M148.44 15.51 C148.44 27.64, 148.44 39.77, 148.44 46.53 M148.44 15.51 C148.44 26.02, 148.44 36.53, 148.44 46.53 M148.44 46.53 C148.44 56.88, 143.27 62.05, 132.93 62.05 M148.44 46.53 C148.44 56.88, 143.27 62.05, 132.93 62.05 M132.93 62.05 C104.08 62.05, 75.23 62.05, 15.51 62.05 M132.93 62.05 C105.55 62.05, 78.17 62.05, 15.51 62.05 M15.51 62.05 C5.17 62.05, 0 56.88, 0 46.53 M15.51 62.05 C5.17 62.05, 0 56.88, 0 46.53 M0 46.53 C0 40.19, 0 33.84, 0 15.51 M0 46.53 C0 38.91, 0 31.28, 0 15.51 M0 15.51 C0 5.17, 5.17 0, 15.51 0 M0 15.51 C0 5.17, 5.17 0, 15.51 0" stroke="#1e1e1e" stroke-width="1" fill="none"></path></g><g transform="translate(906.9813448185205 183.95412467276878) rotate(0 8.203125 16.80000000000001)"><text x="0" y="0" font-family="Cascadia, Segoe UI Emoji" font-size="28px" fill="#1e1e1e" text-anchor="start" style="white-space: pre;" direction="ltr" dominant-baseline="text-before-edge">E</text></g><g stroke-linecap="round"><g transform="translate(943.8299361585186 170.03272909527482) rotate(0 -0.3070715945000302 30.144603173496307)"><path d="M0 0 C-0.1 10.05, -0.51 50.24, -0.61 60.29 M0 0 C-0.1 10.05, -0.51 50.24, -0.61 60.29" stroke="#1e1e1e" stroke-width="1" fill="none"></path></g></g><mask></mask><g transform="translate(960.6749564378961 182.72583829476878) rotate(0 32.8125 16.80000000000001)"><text x="0" y="0" font-family="Cascadia, Segoe UI Emoji" font-size="28px" fill="#1e1e1e" text-anchor="start" style="white-space: pre;" direction="ltr" dominant-baseline="text-before-edge">next</text></g><g stroke-linecap="round"><g transform="translate(815.0108566680256 201.0979449349718) rotate(0 35.073896624564895 -0.046578312647852727)"><path d="M0 0 C11.69 -0.02, 58.46 -0.08, 70.15 -0.09 M0 0 C11.69 -0.02, 58.46 -0.08, 70.15 -0.09" stroke="#1e1e1e" stroke-width="1" fill="none"></path></g><g transform="translate(815.0108566680256 201.0979449349718) rotate(0 35.073896624564895 -0.046578312647852727)"><path d="M70.15 -0.09 L56.56 6.26 L56.54 -6.41 L70.15 -0.09" stroke="none" stroke-width="0" fill="#1e1e1e" fill-rule="evenodd"></path><path d="M70.15 -0.09 C67.15 1.31, 64.16 2.71, 56.56 6.26 M70.15 -0.09 C67.34 1.22, 64.54 2.53, 56.56 6.26 M56.56 6.26 C56.56 1.31, 56.55 -3.65, 56.54 -6.41 M56.56 6.26 C56.56 1.97, 56.55 -2.33, 56.54 -6.41 M56.54 -6.41 C59.44 -5.07, 62.34 -3.72, 70.15 -0.09 M56.54 -6.41 C61.35 -4.18, 66.16 -1.95, 70.15 -0.09 M70.15 -0.09 C70.15 -0.09, 70.15 -0.09, 70.15 -0.09 M70.15 -0.09 C70.15 -0.09, 70.15 -0.09, 70.15 -0.09" stroke="#1e1e1e" stroke-width="1" fill="none"></path></g></g><mask></mask><g stroke-linecap="round"><g transform="translate(988.9196338758429 224.21352478723662) rotate(0 -472.23517636638576 46.0722732570257)"><path d="M0 0 C-1.73 9.96, 71.02 44.47, -10.37 59.76 C-91.76 75.05, -334.69 89.53, -488.34 91.76 C-641.98 94, -854.47 86.26, -932.24 73.18 C-1010 60.1, -951.16 23.28, -954.95 13.31 M0 0 C-1.73 9.96, 71.02 44.47, -10.37 59.76 C-91.76 75.05, -334.69 89.53, -488.34 91.76 C-641.98 94, -854.47 86.26, -932.24 73.18 C-1010 60.1, -951.16 23.28, -954.95 13.31" stroke="#1e1e1e" stroke-width="1" fill="none"></path></g><g transform="translate(988.9196338758429 224.21352478723662) rotate(0 -472.23517636638576 46.0722732570257)"><path d="M-954.95 13.31 L-955.91 28.27 L-967.03 22.19 L-954.95 13.31" stroke="none" stroke-width="0" fill="#1e1e1e" fill-rule="evenodd"></path><path d="M-954.95 13.31 C-955.31 18.94, -955.67 24.57, -955.91 28.27 M-954.95 13.31 C-955.17 16.78, -955.39 20.26, -955.91 28.27 M-955.91 28.27 C-958.22 27.01, -960.53 25.75, -967.03 22.19 M-955.91 28.27 C-959.65 26.23, -963.39 24.19, -967.03 22.19 M-967.03 22.19 C-964.46 20.3, -961.89 18.41, -954.95 13.31 M-967.03 22.19 C-963.6 19.67, -960.17 17.15, -954.95 13.31 M-954.95 13.31 C-954.95 13.31, -954.95 13.31, -954.95 13.31 M-954.95 13.31 C-954.95 13.31, -954.95 13.31, -954.95 13.31" stroke="#1e1e1e" stroke-width="1" fill="none"></path></g></g><mask></mask></svg>