<svg version="1.1" xmlns="http://www.w3.org/2000/svg" viewBox="0 0 1425.5592405234215 469.98552090871095" width="1425.5592405234215" height="469.98552090871095" filter="invert(93%) hue-rotate(180deg)">
  <!-- svg-source:excalidraw -->
  
  <defs>
    <style class="style-fonts">
      @font-face {
        font-family: "Virgil";
        src: url("https://excalidraw.com/Virgil.woff2");
      }
      @font-face {
        font-family: "Cascadia";
        src: url("https://excalidraw.com/Cascadia.woff2");
      }
    </style>
    
  </defs>
  <rect x="0" y="0" width="1425.5592405234215" height="469.98552090871095" fill="#ffffff"></rect><g stroke-linecap="round" transform="translate(10 242.6757939098265) rotate(0 123.60671524110853 31.022778220076816)"><path d="M15.51 0 C90.26 0, 165 0, 231.7 0 M15.51 0 C99.51 0, 183.51 0, 231.7 0 M231.7 0 C242.04 0, 247.21 5.17, 247.21 15.51 M231.7 0 C242.04 0, 247.21 5.17, 247.21 15.51 M247.21 15.51 C247.21 27.8, 247.21 40.08, 247.21 46.53 M247.21 15.51 C247.21 26.2, 247.21 36.89, 247.21 46.53 M247.21 46.53 C247.21 56.88, 242.04 62.05, 231.7 62.05 M247.21 46.53 C247.21 56.88, 242.04 62.05, 231.7 62.05 M231.7 62.05 C179.63 62.05, 127.56 62.05, 15.51 62.05 M231.7 62.05 C171.13 62.05, 110.55 62.05, 15.51 62.05 M15.51 62.05 C5.17 62.05, 0 56.88, 0 46.53 M15.51 62.05 C5.17 62.05, 0 56.88, 0 46.53 M0 46.53 C0 35.17, 0 23.81, 0 15.51 M0 46.53 C0 39.76, 0 32.98, 0 15.51 M0 15.51 C0 5.17, 5.17 0, 15.51 0 M0 15.51 C0 5.17, 5.17 0, 15.51 0" stroke="#1e1e1e" stroke-width="1" fill="none"></path></g><g transform="translate(126.75786176890597 257.47192028809434) rotate(0 8.203125 16.799999999999997)"><text x="0" y="0" font-family="Cascadia, Segoe UI Emoji" font-size="28px" fill="#1e1e1e" text-anchor="start" style="white-space: pre;" direction="ltr" dominant-baseline="text-before-edge">A</text></g><g stroke-linecap="round"><g transform="translate(163.60645310890504 243.5505247106004) rotate(0 -0.3070715945000302 30.14460317349632)"><path d="M0 0 C-0.1 10.05, -0.51 50.24, -0.61 60.29 M0 0 C-0.1 10.05, -0.51 50.24, -0.61 60.29" stroke="#1e1e1e" stroke-width="1" fill="none"></path></g></g><mask></mask><g transform="translate(180.45147338828156 256.24363391009433) rotate(0 32.8125 16.799999999999997)"><text x="0" y="0" font-family="Cascadia, Segoe UI Emoji" font-size="28px" fill="#1e1e1e" text-anchor="start" style="white-space: pre;" direction="ltr" dominant-baseline="text-before-edge">next</text></g><g stroke-linecap="round"><g transform="translate(105.37096896129651 245.362055231303) rotate(0 -0.3070715945000302 30.14460317349632)"><path d="M0 0 C-0.1 10.05, -0.51 50.24, -0.61 60.29 M0 0 C-0.1 10.05, -0.51 50.24, -0.61 60.29" stroke="#1e1e1e" stroke-width="1" fill="none"></path></g></g><mask></mask><g transform="translate(25.34938061006551 257.051293107503) rotate(0 32.8125 16.799999999999997)"><text x="0" y="0" font-family="Cascadia, Segoe UI Emoji" font-size="28px" fill="#1e1e1e" text-anchor="start" style="white-space: pre;" direction="ltr" dominant-baseline="text-before-edge">prev</text></g><g stroke-linecap="round" transform="translate(298.97736927661344 244.2826327804291) rotate(0 123.6067152411083 31.022778220076816)"><path d="M15.51 0 C72.69 0, 129.86 0, 231.7 0 M15.51 0 C70.79 0, 126.07 0, 231.7 0 M231.7 0 C242.04 0, 247.21 5.17, 247.21 15.51 M231.7 0 C242.04 0, 247.21 5.17, 247.21 15.51 M247.21 15.51 C247.21 23.76, 247.21 32.01, 247.21 46.53 M247.21 15.51 C247.21 23.14, 247.21 30.78, 247.21 46.53 M247.21 46.53 C247.21 56.88, 242.04 62.05, 231.7 62.05 M247.21 46.53 C247.21 56.88, 242.04 62.05, 231.7 62.05 M231.7 62.05 C152.84 62.05, 73.97 62.05, 15.51 62.05 M231.7 62.05 C158.82 62.05, 85.94 62.05, 15.51 62.05 M15.51 62.05 C5.17 62.05, 0 56.88, 0 46.53 M15.51 62.05 C5.17 62.05, 0 56.88, 0 46.53 M0 46.53 C0 36.9, 0 27.27, 0 15.51 M0 46.53 C0 35.08, 0 23.62, 0 15.51 M0 15.51 C0 5.17, 5.17 0, 15.51 0 M0 15.51 C0 5.17, 5.17 0, 15.51 0" stroke="#1e1e1e" stroke-width="1" fill="none"></path></g><g transform="translate(415.7352310455203 259.0787591586969) rotate(0 8.203125 16.799999999999997)"><text x="0" y="0" font-family="Cascadia, Segoe UI Emoji" font-size="28px" fill="#1e1e1e" text-anchor="start" style="white-space: pre;" direction="ltr" dominant-baseline="text-before-edge">B</text></g><g stroke-linecap="round"><g transform="translate(452.5838223855185 245.157363581203) rotate(0 -0.3070715945000302 30.14460317349632)"><path d="M0 0 C-0.1 10.05, -0.51 50.24, -0.61 60.29 M0 0 C-0.1 10.05, -0.51 50.24, -0.61 60.29" stroke="#1e1e1e" stroke-width="1" fill="none"></path></g></g><mask></mask><g transform="translate(469.4288426648959 257.8504727806969) rotate(0 32.8125 16.799999999999997)"><text x="0" y="0" font-family="Cascadia, Segoe UI Emoji" font-size="28px" fill="#1e1e1e" text-anchor="start" style="white-space: pre;" direction="ltr" dominant-baseline="text-before-edge">next</text></g><g stroke-linecap="round"><g transform="translate(394.3483382379104 245.22467370406312) rotate(0 -0.3070715945000302 30.14460317349632)"><path d="M0 0 C-0.1 10.05, -0.51 50.24, -0.61 60.29 M0 0 C-0.1 10.05, -0.51 50.24, -0.61 60.29" stroke="#1e1e1e" stroke-width="1" fill="none"></path></g></g><mask></mask><g transform="translate(314.3267498866794 256.91391158026306) rotate(0 32.8125 16.799999999999997)"><text x="0" y="0" font-family="Cascadia, Segoe UI Emoji" font-size="28px" fill="#1e1e1e" text-anchor="start" style="white-space: pre;" direction="ltr" dominant-baseline="text-before-edge">prev</text></g><g stroke-linecap="round" transform="translate(588.7317779438367 246.91308311230284) rotate(0 123.6067152411083 31.022778220076816)"><path d="M15.51 0 C94.89 0, 174.27 0, 231.7 0 M15.51 0 C65.37 0, 115.22 0, 231.7 0 M231.7 0 C242.04 0, 247.21 5.17, 247.21 15.51 M231.7 0 C242.04 0, 247.21 5.17, 247.21 15.51 M247.21 15.51 C247.21 25.8, 247.21 36.09, 247.21 46.53 M247.21 15.51 C247.21 27.63, 247.21 39.74, 247.21 46.53 M247.21 46.53 C247.21 56.88, 242.04 62.05, 231.7 62.05 M247.21 46.53 C247.21 56.88, 242.04 62.05, 231.7 62.05 M231.7 62.05 C184.72 62.05, 137.74 62.05, 15.51 62.05 M231.7 62.05 C175.91 62.05, 120.11 62.05, 15.51 62.05 M15.51 62.05 C5.17 62.05, 0 56.88, 0 46.53 M15.51 62.05 C5.17 62.05, 0 56.88, 0 46.53 M0 46.53 C0 39.89, 0 33.24, 0 15.51 M0 46.53 C0 39.2, 0 31.86, 0 15.51 M0 15.51 C0 5.17, 5.17 0, 15.51 0 M0 15.51 C0 5.17, 5.17 0, 15.51 0" stroke="#1e1e1e" stroke-width="1" fill="none"></path></g><g transform="translate(705.4896397127436 261.70920949057063) rotate(0 8.203125 16.799999999999997)"><text x="0" y="0" font-family="Cascadia, Segoe UI Emoji" font-size="28px" fill="#1e1e1e" text-anchor="start" style="white-space: pre;" direction="ltr" dominant-baseline="text-before-edge">C</text></g><g stroke-linecap="round"><g transform="translate(742.3382310527418 247.78781391307672) rotate(0 -0.3070715945000302 30.144603173496307)"><path d="M0 0 C-0.1 10.05, -0.51 50.24, -0.61 60.29 M0 0 C-0.1 10.05, -0.51 50.24, -0.61 60.29" stroke="#1e1e1e" stroke-width="1" fill="none"></path></g></g><mask></mask><g transform="translate(759.1832513321192 260.4809231125706) rotate(0 32.8125 16.799999999999997)"><text x="0" y="0" font-family="Cascadia, Segoe UI Emoji" font-size="28px" fill="#1e1e1e" text-anchor="start" style="white-space: pre;" direction="ltr" dominant-baseline="text-before-edge">next</text></g><g stroke-linecap="round"><g transform="translate(684.1027469051337 247.8551240359368) rotate(0 -0.3070715945000302 30.144603173496307)"><path d="M0 0 C-0.1 10.05, -0.51 50.24, -0.61 60.29 M0 0 C-0.1 10.05, -0.51 50.24, -0.61 60.29" stroke="#1e1e1e" stroke-width="1" fill="none"></path></g></g><mask></mask><g transform="translate(604.0811585539018 259.54436191213676) rotate(0 32.8125 16.799999999999997)"><text x="0" y="0" font-family="Cascadia, Segoe UI Emoji" font-size="28px" fill="#1e1e1e" text-anchor="start" style="white-space: pre;" direction="ltr" dominant-baseline="text-before-edge">prev</text></g><g stroke-linecap="round" transform="translate(878.7655303409651 248.6937717844734) rotate(0 123.6067152411083 31.022778220076816)"><path d="M15.51 0 C85.43 0, 155.35 0, 231.7 0 M15.51 0 C93.19 0, 170.88 0, 231.7 0 M231.7 0 C242.04 0, 247.21 5.17, 247.21 15.51 M231.7 0 C242.04 0, 247.21 5.17, 247.21 15.51 M247.21 15.51 C247.21 25.3, 247.21 35.08, 247.21 46.53 M247.21 15.51 C247.21 24.89, 247.21 34.28, 247.21 46.53 M247.21 46.53 C247.21 56.88, 242.04 62.05, 231.7 62.05 M247.21 46.53 C247.21 56.88, 242.04 62.05, 231.7 62.05 M231.7 62.05 C177.63 62.05, 123.56 62.05, 15.51 62.05 M231.7 62.05 C145.44 62.05, 59.18 62.05, 15.51 62.05 M15.51 62.05 C5.17 62.05, 0 56.88, 0 46.53 M15.51 62.05 C5.17 62.05, 0 56.88, 0 46.53 M0 46.53 C0 38.41, 0 30.28, 0 15.51 M0 46.53 C0 35.55, 0 24.56, 0 15.51 M0 15.51 C0 5.17, 5.17 0, 15.51 0 M0 15.51 C0 5.17, 5.17 0, 15.51 0" stroke="#1e1e1e" stroke-width="1" fill="none"></path></g><g transform="translate(995.523392109872 263.48989816274116) rotate(0 8.203125 16.799999999999997)"><text x="0" y="0" font-family="Cascadia, Segoe UI Emoji" font-size="28px" fill="#1e1e1e" text-anchor="start" style="white-space: pre;" direction="ltr" dominant-baseline="text-before-edge">D</text></g><g stroke-linecap="round"><g transform="translate(1032.3719834498702 249.56850258524733) rotate(0 -0.3070715945000302 30.14460317349632)"><path d="M0 0 C-0.1 10.05, -0.51 50.24, -0.61 60.29 M0 0 C-0.1 10.05, -0.51 50.24, -0.61 60.29" stroke="#1e1e1e" stroke-width="1" fill="none"></path></g></g><mask></mask><g transform="translate(1049.2170037292476 262.26161178474126) rotate(0 32.8125 16.799999999999997)"><text x="0" y="0" font-family="Cascadia, Segoe UI Emoji" font-size="28px" fill="#1e1e1e" text-anchor="start" style="white-space: pre;" direction="ltr" dominant-baseline="text-before-edge">next</text></g><g stroke-linecap="round"><g transform="translate(974.1364993022621 250.55298112850207) rotate(0 -0.3070715945000302 30.14460317349632)"><path d="M0 0 C-0.1 10.05, -0.51 50.24, -0.61 60.29 M0 0 C-0.1 10.05, -0.51 50.24, -0.61 60.29" stroke="#1e1e1e" stroke-width="1" fill="none"></path></g></g><mask></mask><g transform="translate(894.1149109510302 262.24221900470206) rotate(0 32.8125 16.799999999999997)"><text x="0" y="0" font-family="Cascadia, Segoe UI Emoji" font-size="28px" fill="#1e1e1e" text-anchor="start" style="white-space: pre;" direction="ltr" dominant-baseline="text-before-edge">prev</text></g><g stroke-linecap="round" transform="translate(1168.345810041205 251.77719077847226) rotate(0 123.6067152411083 31.022778220076816)"><path d="M15.51 0 C99.37 0, 183.23 0, 231.7 0 M15.51 0 C61.97 0, 108.42 0, 231.7 0 M231.7 0 C242.04 0, 247.21 5.17, 247.21 15.51 M231.7 0 C242.04 0, 247.21 5.17, 247.21 15.51 M247.21 15.51 C247.21 26.74, 247.21 37.97, 247.21 46.53 M247.21 15.51 C247.21 24.5, 247.21 33.49, 247.21 46.53 M247.21 46.53 C247.21 56.88, 242.04 62.05, 231.7 62.05 M247.21 46.53 C247.21 56.88, 242.04 62.05, 231.7 62.05 M231.7 62.05 C157.55 62.05, 83.41 62.05, 15.51 62.05 M231.7 62.05 C173.09 62.05, 114.48 62.05, 15.51 62.05 M15.51 62.05 C5.17 62.05, 0 56.88, 0 46.53 M15.51 62.05 C5.17 62.05, 0 56.88, 0 46.53 M0 46.53 C0 36.36, 0 26.18, 0 15.51 M0 46.53 C0 34.47, 0 22.4, 0 15.51 M0 15.51 C0 5.17, 5.17 0, 15.51 0 M0 15.51 C0 5.17, 5.17 0, 15.51 0" stroke="#1e1e1e" stroke-width="1" fill="none"></path></g><g transform="translate(1285.10367181011 266.57331715674) rotate(0 8.203125 16.799999999999997)"><text x="0" y="0" font-family="Cascadia, Segoe UI Emoji" font-size="28px" fill="#1e1e1e" text-anchor="start" style="white-space: pre;" direction="ltr" dominant-baseline="text-before-edge">E</text></g><g stroke-linecap="round"><g transform="translate(1321.95226315011 252.6519215792462) rotate(0 -0.3070715945000302 30.14460317349632)"><path d="M0 0 C-0.1 10.05, -0.51 50.24, -0.61 60.29 M0 0 C-0.1 10.05, -0.51 50.24, -0.61 60.29" stroke="#1e1e1e" stroke-width="1" fill="none"></path></g></g><mask></mask><g transform="translate(1338.7972834294856 265.3450307787401) rotate(0 32.8125 16.799999999999997)"><text x="0" y="0" font-family="Cascadia, Segoe UI Emoji" font-size="28px" fill="#1e1e1e" text-anchor="start" style="white-space: pre;" direction="ltr" dominant-baseline="text-before-edge">next</text></g><g stroke-linecap="round"><g transform="translate(1263.7167790025 252.7192317021062) rotate(0 -0.3070715945000302 30.14460317349632)"><path d="M0 0 C-0.1 10.05, -0.51 50.24, -0.61 60.29 M0 0 C-0.1 10.05, -0.51 50.24, -0.61 60.29" stroke="#1e1e1e" stroke-width="1" fill="none"></path></g></g><mask></mask><g transform="translate(1183.69519065127 264.40846957830627) rotate(0 32.8125 16.799999999999997)"><text x="0" y="0" font-family="Cascadia, Segoe UI Emoji" font-size="28px" fill="#1e1e1e" text-anchor="start" style="white-space: pre;" direction="ltr" dominant-baseline="text-before-edge">prev</text></g><g stroke-linecap="round"><g transform="translate(1126.818851715228 279.21483772246506) rotate(0 20.475576620076936 0.02876674285651859)"><path d="M0 0 C6.83 0.01, 34.13 0.05, 40.95 0.06 M0 0 C6.83 0.01, 34.13 0.05, 40.95 0.06" stroke="#1e1e1e" stroke-width="1" fill="none"></path></g></g><mask></mask><g stroke-linecap="round"><g transform="translate(210.8323649962863 251.9663735475427) rotate(0 105.51570440038086 -25.738988358701143)"><path d="M0 0 C28.11 -8.56, 133.49 -49.12, 168.66 -51.37 C203.83 -53.62, 203.97 -19.82, 211.03 -13.51 M0 0 C28.11 -8.56, 133.49 -49.12, 168.66 -51.37 C203.83 -53.62, 203.97 -19.82, 211.03 -13.51" stroke="#1e1e1e" stroke-width="1" fill="none"></path></g><g transform="translate(210.8323649962863 251.9663735475427) rotate(0 105.51570440038086 -25.738988358701143)"><path d="M211.03 -13.51 L199.33 -22.89 L210.7 -28.5 L211.03 -13.51" stroke="none" stroke-width="0" fill="#1e1e1e" fill-rule="evenodd"></path><path d="M211.03 -13.51 C208.09 -15.87, 205.15 -18.22, 199.33 -22.89 M211.03 -13.51 C207.89 -16.03, 204.75 -18.54, 199.33 -22.89 M199.33 -22.89 C203.08 -24.74, 206.83 -26.59, 210.7 -28.5 M199.33 -22.89 C203.55 -24.97, 207.77 -27.06, 210.7 -28.5 M210.7 -28.5 C210.82 -23.21, 210.93 -17.93, 211.03 -13.51 M210.7 -28.5 C210.77 -25.29, 210.84 -22.08, 211.03 -13.51 M211.03 -13.51 C211.03 -13.51, 211.03 -13.51, 211.03 -13.51 M211.03 -13.51 C211.03 -13.51, 211.03 -13.51, 211.03 -13.51" stroke="#1e1e1e" stroke-width="1" fill="none"></path></g></g><mask></mask><g stroke-linecap="round"><g transform="translate(346.02484813313595 294.860556585627) rotate(0 -105.13506472051131 29.59298170257064)"><path d="M0 0 C-27.1 9.84, -127.57 56.5, -162.61 59.06 C-197.66 61.63, -202.33 22.68, -210.27 15.4 M0 0 C-27.1 9.84, -127.57 56.5, -162.61 59.06 C-197.66 61.63, -202.33 22.68, -210.27 15.4" stroke="#1e1e1e" stroke-width="1" fill="none"></path></g><g transform="translate(346.02484813313595 294.860556585627) rotate(0 -105.13506472051131 29.59298170257064)"><path d="M-210.27 15.4 L-198.19 24.29 L-209.31 30.37 L-210.27 15.4" stroke="none" stroke-width="0" fill="#1e1e1e" fill-rule="evenodd"></path><path d="M-210.27 15.4 C-207.51 17.43, -204.75 19.46, -198.19 24.29 M-210.27 15.4 C-207.17 17.68, -204.07 19.96, -198.19 24.29 M-198.19 24.29 C-202.41 26.6, -206.64 28.91, -209.31 30.37 M-198.19 24.29 C-200.41 25.51, -202.64 26.72, -209.31 30.37 M-209.31 30.37 C-209.66 24.91, -210.01 19.46, -210.27 15.4 M-209.31 30.37 C-209.51 27.23, -209.71 24.1, -210.27 15.4 M-210.27 15.4 C-210.27 15.4, -210.27 15.4, -210.27 15.4 M-210.27 15.4 C-210.27 15.4, -210.27 15.4, -210.27 15.4" stroke="#1e1e1e" stroke-width="1" fill="none"></path></g></g><mask></mask><g stroke-linecap="round"><g transform="translate(498.148145290153 251.2855014640947) rotate(0 105.50397728592634 -25.738988358701143)"><path d="M0 0 C28.11 -8.56, 133.47 -49.12, 168.64 -51.37 C203.8 -53.62, 203.95 -19.82, 211.01 -13.51 M0 0 C28.11 -8.56, 133.47 -49.12, 168.64 -51.37 C203.8 -53.62, 203.95 -19.82, 211.01 -13.51" stroke="#1e1e1e" stroke-width="1" fill="none"></path></g><g transform="translate(498.148145290153 251.2855014640947) rotate(0 105.50397728592634 -25.738988358701143)"><path d="M211.01 -13.51 L199.31 -22.89 L210.68 -28.5 L211.01 -13.51" stroke="none" stroke-width="0" fill="#1e1e1e" fill-rule="evenodd"></path><path d="M211.01 -13.51 C207.32 -16.47, 203.63 -19.43, 199.31 -22.89 M211.01 -13.51 C207.78 -16.1, 204.55 -18.69, 199.31 -22.89 M199.31 -22.89 C202.26 -24.35, 205.21 -25.81, 210.68 -28.5 M199.31 -22.89 C202.07 -24.26, 204.83 -25.62, 210.68 -28.5 M210.68 -28.5 C210.75 -25.22, 210.82 -21.94, 211.01 -13.51 M210.68 -28.5 C210.78 -24.03, 210.87 -19.56, 211.01 -13.51 M211.01 -13.51 C211.01 -13.51, 211.01 -13.51, 211.01 -13.51 M211.01 -13.51 C211.01 -13.51, 211.01 -13.51, 211.01 -13.51" stroke="#1e1e1e" stroke-width="1" fill="none"></path></g></g><mask></mask><g stroke-linecap="round"><g transform="translate(632.9783148074089 295.09685292257365) rotate(0 -104.77659688573385 29.13475983293489)"><path d="M0 0 C-27.05 9.69, -127.35 55.6, -162.27 58.15 C-197.2 60.7, -201.67 22.45, -209.55 15.31 M0 0 C-27.05 9.69, -127.35 55.6, -162.27 58.15 C-197.2 60.7, -201.67 22.45, -209.55 15.31" stroke="#1e1e1e" stroke-width="1" fill="none"></path></g><g transform="translate(632.9783148074089 295.09685292257365) rotate(0 -104.77659688573385 29.13475983293489)"><path d="M-209.55 15.31 L-197.45 24.17 L-208.56 30.28 L-209.55 15.31" stroke="none" stroke-width="0" fill="#1e1e1e" fill-rule="evenodd"></path><path d="M-209.55 15.31 C-205.15 18.53, -200.75 21.75, -197.45 24.17 M-209.55 15.31 C-205.7 18.13, -201.85 20.94, -197.45 24.17 M-197.45 24.17 C-201.76 26.54, -206.06 28.91, -208.56 30.28 M-197.45 24.17 C-200.32 25.75, -203.19 27.33, -208.56 30.28 M-208.56 30.28 C-208.89 25.25, -209.23 20.22, -209.55 15.31 M-208.56 30.28 C-208.85 25.79, -209.15 21.3, -209.55 15.31 M-209.55 15.31 C-209.55 15.31, -209.55 15.31, -209.55 15.31 M-209.55 15.31 C-209.55 15.31, -209.55 15.31, -209.55 15.31" stroke="#1e1e1e" stroke-width="1" fill="none"></path></g></g><mask></mask><g stroke-linecap="round"><g transform="translate(786.3558789007943 255.84011926337342) rotate(0 105.46605034482263 -26.21363714185523)"><path d="M0 0 C28.17 -8.71, 133.88 -49.73, 169.03 -52.29 C204.19 -54.84, 203.95 -21.5, 210.93 -15.34 M0 0 C28.17 -8.71, 133.88 -49.73, 169.03 -52.29 C204.19 -54.84, 203.95 -21.5, 210.93 -15.34" stroke="#1e1e1e" stroke-width="1" fill="none"></path></g><g transform="translate(786.3558789007943 255.84011926337342) rotate(0 105.46605034482263 -26.21363714185523)"><path d="M210.93 -15.34 L199.25 -24.75 L210.63 -30.34 L210.93 -15.34" stroke="none" stroke-width="0" fill="#1e1e1e" fill-rule="evenodd"></path><path d="M210.93 -15.34 C207.06 -18.46, 203.19 -21.58, 199.25 -24.75 M210.93 -15.34 C207.52 -18.09, 204.1 -20.85, 199.25 -24.75 M199.25 -24.75 C202.17 -26.19, 205.09 -27.62, 210.63 -30.34 M199.25 -24.75 C202.05 -26.13, 204.86 -27.5, 210.63 -30.34 M210.63 -30.34 C210.7 -27.24, 210.76 -24.13, 210.93 -15.34 M210.63 -30.34 C210.71 -26.41, 210.79 -22.49, 210.93 -15.34 M210.93 -15.34 C210.93 -15.34, 210.93 -15.34, 210.93 -15.34 M210.93 -15.34 C210.93 -15.34, 210.93 -15.34, 210.93 -15.34" stroke="#1e1e1e" stroke-width="1" fill="none"></path></g></g><mask></mask><g stroke-linecap="round"><g transform="translate(921.582716275821 298.73430230145766) rotate(0 -104.57542090335346 29.14316093741445)"><path d="M0 0 C-27.05 9.69, -127.41 55.44, -162.27 58.15 C-197.13 60.85, -201.34 23.21, -209.15 16.23 M0 0 C-27.05 9.69, -127.41 55.44, -162.27 58.15 C-197.13 60.85, -201.34 23.21, -209.15 16.23" stroke="#1e1e1e" stroke-width="1" fill="none"></path></g><g transform="translate(921.582716275821 298.73430230145766) rotate(0 -104.57542090335346 29.14316093741445)"><path d="M-209.15 16.23 L-197.03 25.06 L-208.13 31.19 L-209.15 16.23" stroke="none" stroke-width="0" fill="#1e1e1e" fill-rule="evenodd"></path><path d="M-209.15 16.23 C-204.72 19.46, -200.29 22.69, -197.03 25.06 M-209.15 16.23 C-205.89 18.6, -202.63 20.98, -197.03 25.06 M-197.03 25.06 C-201.15 27.34, -205.28 29.62, -208.13 31.19 M-197.03 25.06 C-199.65 26.51, -202.27 27.96, -208.13 31.19 M-208.13 31.19 C-208.52 25.5, -208.91 19.81, -209.15 16.23 M-208.13 31.19 C-208.45 26.56, -208.76 21.93, -209.15 16.23 M-209.15 16.23 C-209.15 16.23, -209.15 16.23, -209.15 16.23 M-209.15 16.23 C-209.15 16.23, -209.15 16.23, -209.15 16.23" stroke="#1e1e1e" stroke-width="1" fill="none"></path></g></g><mask></mask><g stroke-linecap="round"><g transform="translate(1081.2052334756459 257.8529062278367) rotate(0 105.50789201650696 -25.738988358701143)"><path d="M0 0 C28.11 -8.56, 133.48 -49.12, 168.64 -51.37 C203.81 -53.62, 203.95 -19.82, 211.02 -13.51 M0 0 C28.11 -8.56, 133.48 -49.12, 168.64 -51.37 C203.81 -53.62, 203.95 -19.82, 211.02 -13.51" stroke="#1e1e1e" stroke-width="1" fill="none"></path></g><g transform="translate(1081.2052334756459 257.8529062278367) rotate(0 105.50789201650696 -25.738988358701143)"><path d="M211.02 -13.51 L199.31 -22.89 L210.68 -28.5 L211.02 -13.51" stroke="none" stroke-width="0" fill="#1e1e1e" fill-rule="evenodd"></path><path d="M211.02 -13.51 C207.44 -16.38, 203.86 -19.25, 199.31 -22.89 M211.02 -13.51 C207 -16.73, 202.98 -19.95, 199.31 -22.89 M199.31 -22.89 C203.53 -24.97, 207.74 -27.05, 210.68 -28.5 M199.31 -22.89 C202.64 -24.53, 205.96 -26.17, 210.68 -28.5 M210.68 -28.5 C210.79 -23.78, 210.89 -19.05, 211.02 -13.51 M210.68 -28.5 C210.79 -23.67, 210.9 -18.83, 211.02 -13.51 M211.02 -13.51 C211.02 -13.51, 211.02 -13.51, 211.02 -13.51 M211.02 -13.51 C211.02 -13.51, 211.02 -13.51, 211.02 -13.51" stroke="#1e1e1e" stroke-width="1" fill="none"></path></g></g><mask></mask><g stroke-linecap="round"><g transform="translate(1216.043232454063 301.66425768631564) rotate(0 -104.78655154619128 29.134759832934876)"><path d="M0 0 C-27.05 9.69, -127.34 55.6, -162.27 58.15 C-197.2 60.7, -201.69 22.45, -209.57 15.31 M0 0 C-27.05 9.69, -127.34 55.6, -162.27 58.15 C-197.2 60.7, -201.69 22.45, -209.57 15.31" stroke="#1e1e1e" stroke-width="1" fill="none"></path></g><g transform="translate(1216.043232454063 301.66425768631564) rotate(0 -104.78655154619128 29.134759832934876)"><path d="M-209.57 15.31 L-197.46 24.16 L-208.57 30.28 L-209.57 15.31" stroke="none" stroke-width="0" fill="#1e1e1e" fill-rule="evenodd"></path><path d="M-209.57 15.31 C-205.44 18.33, -201.3 21.36, -197.46 24.16 M-209.57 15.31 C-206.32 17.69, -203.06 20.07, -197.46 24.16 M-197.46 24.16 C-201.69 26.49, -205.92 28.82, -208.57 30.28 M-197.46 24.16 C-199.89 25.5, -202.33 26.84, -208.57 30.28 M-208.57 30.28 C-208.81 26.76, -209.04 23.24, -209.57 15.31 M-208.57 30.28 C-208.94 24.72, -209.31 19.17, -209.57 15.31 M-209.57 15.31 C-209.57 15.31, -209.57 15.31, -209.57 15.31 M-209.57 15.31 C-209.57 15.31, -209.57 15.31, -209.57 15.31" stroke="#1e1e1e" stroke-width="1" fill="none"></path></g></g><mask></mask><g transform="translate(112.17569680560837 10) rotate(0 32.8125 16.8)"><text x="0" y="0" font-family="Cascadia, Segoe UI Emoji" font-size="28px" fill="#1e1e1e" text-anchor="start" style="white-space: pre;" direction="ltr" dominant-baseline="text-before-edge">HEAD</text></g><g stroke-linecap="round"><g transform="translate(134.63140770955624 55.20829447944158) rotate(0 -0.5184453775618749 89.13680607111843)"><path d="M0 0 C-0.17 29.71, -0.86 148.56, -1.04 178.27 M0 0 C-0.17 29.71, -0.86 148.56, -1.04 178.27" stroke="#1e1e1e" stroke-width="1" fill="none"></path></g><g transform="translate(134.63140770955624 55.20829447944158) rotate(0 -0.5184453775618749 89.13680607111843)"><path d="M-1.04 178.27 L-7.3 164.64 L5.38 164.72 L-1.04 178.27" stroke="none" stroke-width="0" fill="#1e1e1e" fill-rule="evenodd"></path><path d="M-1.04 178.27 C-2.79 174.46, -4.54 170.66, -7.3 164.64 M-1.04 178.27 C-2.49 175.11, -3.94 171.95, -7.3 164.64 M-7.3 164.64 C-3.76 164.66, -0.22 164.68, 5.38 164.72 M-7.3 164.64 C-2.93 164.67, 1.44 164.69, 5.38 164.72 M5.38 164.72 C2.98 169.78, 0.58 174.85, -1.04 178.27 M5.38 164.72 C3.15 169.44, 0.91 174.16, -1.04 178.27 M-1.04 178.27 C-1.04 178.27, -1.04 178.27, -1.04 178.27 M-1.04 178.27 C-1.04 178.27, -1.04 178.27, -1.04 178.27" stroke="#1e1e1e" stroke-width="1" fill="none"></path></g></g><mask></mask><g stroke-linecap="round"><g transform="translate(1369.554003900806 304.1030920155676) rotate(0 -652.8003144638585 77.94121444657173)"><path d="M0 0 C-15.31 19.27, 32.52 89.64, -91.88 115.62 C-216.27 141.6, -549.88 155.71, -746.37 155.88 C-942.86 156.05, -1185.8 140.38, -1270.79 116.65 C-1355.78 92.93, -1258.71 30.72, -1256.3 13.54 M0 0 C-15.31 19.27, 32.52 89.64, -91.88 115.62 C-216.27 141.6, -549.88 155.71, -746.37 155.88 C-942.86 156.05, -1185.8 140.38, -1270.79 116.65 C-1355.78 92.93, -1258.71 30.72, -1256.3 13.54" stroke="#1e1e1e" stroke-width="1" fill="none"></path></g><g transform="translate(1369.554003900806 304.1030920155676) rotate(0 -652.8003144638585 77.94121444657173)"><path d="M-1256.3 13.54 L-1259.83 28.11 L-1269.74 20.2 L-1256.3 13.54" stroke="none" stroke-width="0" fill="#1e1e1e" fill-rule="evenodd"></path><path d="M-1256.3 13.54 C-1257.7 19.34, -1259.11 25.14, -1259.83 28.11 M-1256.3 13.54 C-1257.35 17.9, -1258.41 22.26, -1259.83 28.11 M-1259.83 28.11 C-1262.87 25.68, -1265.92 23.25, -1269.74 20.2 M-1259.83 28.11 C-1262.79 25.75, -1265.74 23.39, -1269.74 20.2 M-1269.74 20.2 C-1264.64 17.67, -1259.55 15.15, -1256.3 13.54 M-1269.74 20.2 C-1266.83 18.76, -1263.93 17.32, -1256.3 13.54 M-1256.3 13.54 C-1256.3 13.54, -1256.3 13.54, -1256.3 13.54 M-1256.3 13.54 C-1256.3 13.54, -1256.3 13.54, -1256.3 13.54" stroke="#1e1e1e" stroke-width="1" fill="none"></path></g></g><mask></mask><g stroke-linecap="round"><g transform="translate(56.437010547958835 248.35755927889016) rotate(0 635.8842570189811 -75.51279599478588)"><path d="M0 0 C0 -14.28, -47.14 -65.38, 0 -85.68 C47.14 -105.99, 119.75 -110.97, 282.86 -121.81 C445.96 -132.65, 812.96 -153.82, 978.64 -150.72 C1144.33 -147.62, 1231.56 -127.49, 1276.99 -103.23 C1322.41 -78.97, 1255.48 -21.51, 1251.18 -5.16 M0 0 C0 -14.28, -47.14 -65.38, 0 -85.68 C47.14 -105.99, 119.75 -110.97, 282.86 -121.81 C445.96 -132.65, 812.96 -153.82, 978.64 -150.72 C1144.33 -147.62, 1231.56 -127.49, 1276.99 -103.23 C1322.41 -78.97, 1255.48 -21.51, 1251.18 -5.16" stroke="#1e1e1e" stroke-width="1" fill="none"></path></g><g transform="translate(56.437010547958835 248.35755927889016) rotate(0 635.8842570189811 -75.51279599478588)"><path d="M1251.18 -5.16 L1253.52 -19.98 L1264.03 -12.89 L1251.18 -5.16" stroke="none" stroke-width="0" fill="#1e1e1e" fill-rule="evenodd"></path><path d="M1251.18 -5.16 C1252.06 -10.73, 1252.94 -16.31, 1253.52 -19.98 M1251.18 -5.16 C1251.75 -8.78, 1252.32 -12.4, 1253.52 -19.98 M1253.52 -19.98 C1256.35 -18.07, 1259.18 -16.16, 1264.03 -12.89 M1253.52 -19.98 C1257.53 -17.28, 1261.53 -14.58, 1264.03 -12.89 M1264.03 -12.89 C1261.38 -11.29, 1258.72 -9.7, 1251.18 -5.16 M1264.03 -12.89 C1260.82 -10.96, 1257.61 -9.03, 1251.18 -5.16 M1251.18 -5.16 C1251.18 -5.16, 1251.18 -5.16, 1251.18 -5.16 M1251.18 -5.16 C1251.18 -5.16, 1251.18 -5.16, 1251.18 -5.16" stroke="#1e1e1e" stroke-width="1" fill="none"></path></g></g><mask></mask></svg>