<svg version="1.1" xmlns="http://www.w3.org/2000/svg" viewBox="0 0 1425.559240523421 369.9337773521855" width="1425.559240523421" height="369.9337773521855" filter="invert(93%) hue-rotate(180deg)">
  <!-- svg-source:excalidraw -->
  
  <defs>
    <style class="style-fonts">
      @font-face {
        font-family: "Virgil";
        src: url("https://excalidraw.com/Virgil.woff2");
      }
      @font-face {
        font-family: "Cascadia";
        src: url("https://excalidraw.com/Cascadia.woff2");
      }
    </style>
    
  </defs>
  <rect x="0" y="0" width="1425.559240523421" height="369.9337773521855" fill="#ffffff"></rect><g stroke-linecap="round" transform="translate(10 242.6757939098265) rotate(0 123.6067152411083 31.022778220076816)"><path d="M15.51 0 C101.16 0, 186.81 0, 231.7 0 M15.51 0 C90.52 0, 165.53 0, 231.7 0 M231.7 0 C242.04 0, 247.21 5.17, 247.21 15.51 M231.7 0 C242.04 0, 247.21 5.17, 247.21 15.51 M247.21 15.51 C247.21 21.88, 247.21 28.25, 247.21 46.53 M247.21 15.51 C247.21 24.08, 247.21 32.65, 247.21 46.53 M247.21 46.53 C247.21 56.88, 242.04 62.05, 231.7 62.05 M247.21 46.53 C247.21 56.88, 242.04 62.05, 231.7 62.05 M231.7 62.05 C165.73 62.05, 99.77 62.05, 15.51 62.05 M231.7 62.05 C180.61 62.05, 129.52 62.05, 15.51 62.05 M15.51 62.05 C5.17 62.05, 0 56.88, 0 46.53 M15.51 62.05 C5.17 62.05, 0 56.88, 0 46.53 M0 46.53 C0 39.28, 0 32.02, 0 15.51 M0 46.53 C0 39.82, 0 33.11, 0 15.51 M0 15.51 C0 5.17, 5.17 0, 15.51 0 M0 15.51 C0 5.17, 5.17 0, 15.51 0" stroke="#1e1e1e" stroke-width="1" fill="none"></path></g><g transform="translate(126.75786176890688 257.47192028809434) rotate(0 8.203125 16.799999999999997)"><text x="0" y="0" font-family="Cascadia, Segoe UI Emoji" font-size="28px" fill="#1e1e1e" text-anchor="start" style="white-space: pre;" direction="ltr" dominant-baseline="text-before-edge">A</text></g><g stroke-linecap="round"><g transform="translate(163.60645310890504 243.5505247106004) rotate(0 -0.3070715945000302 30.14460317349632)"><path d="M0 0 C-0.1 10.05, -0.51 50.24, -0.61 60.29 M0 0 C-0.1 10.05, -0.51 50.24, -0.61 60.29" stroke="#1e1e1e" stroke-width="1" fill="none"></path></g></g><mask></mask><g transform="translate(180.45147338828247 256.24363391009433) rotate(0 32.8125 16.799999999999997)"><text x="0" y="0" font-family="Cascadia, Segoe UI Emoji" font-size="28px" fill="#1e1e1e" text-anchor="start" style="white-space: pre;" direction="ltr" dominant-baseline="text-before-edge">next</text></g><g stroke-linecap="round"><g transform="translate(105.37096896129697 245.362055231303) rotate(0 -0.3070715945000302 30.14460317349632)"><path d="M0 0 C-0.1 10.05, -0.51 50.24, -0.61 60.29 M0 0 C-0.1 10.05, -0.51 50.24, -0.61 60.29" stroke="#1e1e1e" stroke-width="1" fill="none"></path></g></g><mask></mask><g transform="translate(25.349380610065964 257.051293107503) rotate(0 32.8125 16.799999999999997)"><text x="0" y="0" font-family="Cascadia, Segoe UI Emoji" font-size="28px" fill="#1e1e1e" text-anchor="start" style="white-space: pre;" direction="ltr" dominant-baseline="text-before-edge">prev</text></g><g stroke-linecap="round" transform="translate(298.9773692766139 244.2826327804291) rotate(0 123.6067152411083 31.022778220076816)"><path d="M15.51 0 C88.54 0, 161.58 0, 231.7 0 M15.51 0 C71.34 0, 127.17 0, 231.7 0 M231.7 0 C242.04 0, 247.21 5.17, 247.21 15.51 M231.7 0 C242.04 0, 247.21 5.17, 247.21 15.51 M247.21 15.51 C247.21 27.75, 247.21 40, 247.21 46.53 M247.21 15.51 C247.21 23.6, 247.21 31.69, 247.21 46.53 M247.21 46.53 C247.21 56.88, 242.04 62.05, 231.7 62.05 M247.21 46.53 C247.21 56.88, 242.04 62.05, 231.7 62.05 M231.7 62.05 C171.68 62.05, 111.67 62.05, 15.51 62.05 M231.7 62.05 C159.74 62.05, 87.78 62.05, 15.51 62.05 M15.51 62.05 C5.17 62.05, 0 56.88, 0 46.53 M15.51 62.05 C5.17 62.05, 0 56.88, 0 46.53 M0 46.53 C0 39.28, 0 32.02, 0 15.51 M0 46.53 C0 35.24, 0 23.95, 0 15.51 M0 15.51 C0 5.17, 5.17 0, 15.51 0 M0 15.51 C0 5.17, 5.17 0, 15.51 0" stroke="#1e1e1e" stroke-width="1" fill="none"></path></g><g transform="translate(415.7352310455208 259.0787591586969) rotate(0 8.203125 16.799999999999997)"><text x="0" y="0" font-family="Cascadia, Segoe UI Emoji" font-size="28px" fill="#1e1e1e" text-anchor="start" style="white-space: pre;" direction="ltr" dominant-baseline="text-before-edge">B</text></g><g stroke-linecap="round"><g transform="translate(452.58382238551894 245.157363581203) rotate(0 -0.3070715945000302 30.14460317349632)"><path d="M0 0 C-0.1 10.05, -0.51 50.24, -0.61 60.29 M0 0 C-0.1 10.05, -0.51 50.24, -0.61 60.29" stroke="#1e1e1e" stroke-width="1" fill="none"></path></g></g><mask></mask><g transform="translate(469.42884266489637 257.8504727806969) rotate(0 32.8125 16.799999999999997)"><text x="0" y="0" font-family="Cascadia, Segoe UI Emoji" font-size="28px" fill="#1e1e1e" text-anchor="start" style="white-space: pre;" direction="ltr" dominant-baseline="text-before-edge">next</text></g><g stroke-linecap="round"><g transform="translate(394.34833823791087 245.22467370406312) rotate(0 -0.3070715945000302 30.14460317349632)"><path d="M0 0 C-0.1 10.05, -0.51 50.24, -0.61 60.29 M0 0 C-0.1 10.05, -0.51 50.24, -0.61 60.29" stroke="#1e1e1e" stroke-width="1" fill="none"></path></g></g><mask></mask><g transform="translate(314.32674988667986 256.91391158026306) rotate(0 32.8125 16.799999999999997)"><text x="0" y="0" font-family="Cascadia, Segoe UI Emoji" font-size="28px" fill="#1e1e1e" text-anchor="start" style="white-space: pre;" direction="ltr" dominant-baseline="text-before-edge">prev</text></g><g stroke-linecap="round" transform="translate(588.7317779438372 246.91308311230284) rotate(0 123.6067152411083 31.022778220076816)"><path d="M15.51 0 C77.62 0, 139.74 0, 231.7 0 M15.51 0 C63.73 0, 111.94 0, 231.7 0 M231.7 0 C242.04 0, 247.21 5.17, 247.21 15.51 M231.7 0 C242.04 0, 247.21 5.17, 247.21 15.51 M247.21 15.51 C247.21 26.18, 247.21 36.85, 247.21 46.53 M247.21 15.51 C247.21 25.49, 247.21 35.46, 247.21 46.53 M247.21 46.53 C247.21 56.88, 242.04 62.05, 231.7 62.05 M247.21 46.53 C247.21 56.88, 242.04 62.05, 231.7 62.05 M231.7 62.05 C163.78 62.05, 95.85 62.05, 15.51 62.05 M231.7 62.05 C178.73 62.05, 125.77 62.05, 15.51 62.05 M15.51 62.05 C5.17 62.05, 0 56.88, 0 46.53 M15.51 62.05 C5.17 62.05, 0 56.88, 0 46.53 M0 46.53 C0 38.27, 0 30, 0 15.51 M0 46.53 C0 38.13, 0 29.72, 0 15.51 M0 15.51 C0 5.17, 5.17 0, 15.51 0 M0 15.51 C0 5.17, 5.17 0, 15.51 0" stroke="#1e1e1e" stroke-width="1" fill="none"></path></g><g transform="translate(705.4896397127441 261.70920949057063) rotate(0 8.203125 16.799999999999997)"><text x="0" y="0" font-family="Cascadia, Segoe UI Emoji" font-size="28px" fill="#1e1e1e" text-anchor="start" style="white-space: pre;" direction="ltr" dominant-baseline="text-before-edge">C</text></g><g stroke-linecap="round"><g transform="translate(742.3382310527422 247.78781391307672) rotate(0 -0.3070715945000302 30.144603173496307)"><path d="M0 0 C-0.1 10.05, -0.51 50.24, -0.61 60.29 M0 0 C-0.1 10.05, -0.51 50.24, -0.61 60.29" stroke="#1e1e1e" stroke-width="1" fill="none"></path></g></g><mask></mask><g transform="translate(759.1832513321187 260.4809231125706) rotate(0 32.8125 16.799999999999997)"><text x="0" y="0" font-family="Cascadia, Segoe UI Emoji" font-size="28px" fill="#1e1e1e" text-anchor="start" style="white-space: pre;" direction="ltr" dominant-baseline="text-before-edge">next</text></g><g stroke-linecap="round"><g transform="translate(684.1027469051342 247.8551240359368) rotate(0 -0.3070715945000302 30.144603173496307)"><path d="M0 0 C-0.1 10.05, -0.51 50.24, -0.61 60.29 M0 0 C-0.1 10.05, -0.51 50.24, -0.61 60.29" stroke="#1e1e1e" stroke-width="1" fill="none"></path></g></g><mask></mask><g transform="translate(604.0811585539022 259.54436191213676) rotate(0 32.8125 16.799999999999997)"><text x="0" y="0" font-family="Cascadia, Segoe UI Emoji" font-size="28px" fill="#1e1e1e" text-anchor="start" style="white-space: pre;" direction="ltr" dominant-baseline="text-before-edge">prev</text></g><g stroke-linecap="round" transform="translate(878.7655303409647 248.6937717844734) rotate(0 123.6067152411083 31.022778220076816)"><path d="M15.51 0 C85.84 0, 156.17 0, 231.7 0 M15.51 0 C88.67 0, 161.82 0, 231.7 0 M231.7 0 C242.04 0, 247.21 5.17, 247.21 15.51 M231.7 0 C242.04 0, 247.21 5.17, 247.21 15.51 M247.21 15.51 C247.21 26.57, 247.21 37.63, 247.21 46.53 M247.21 15.51 C247.21 27, 247.21 38.49, 247.21 46.53 M247.21 46.53 C247.21 56.88, 242.04 62.05, 231.7 62.05 M247.21 46.53 C247.21 56.88, 242.04 62.05, 231.7 62.05 M231.7 62.05 C152.6 62.05, 73.5 62.05, 15.51 62.05 M231.7 62.05 C172.36 62.05, 113.02 62.05, 15.51 62.05 M15.51 62.05 C5.17 62.05, 0 56.88, 0 46.53 M15.51 62.05 C5.17 62.05, 0 56.88, 0 46.53 M0 46.53 C0 35.51, 0 24.48, 0 15.51 M0 46.53 C0 40.21, 0 33.88, 0 15.51 M0 15.51 C0 5.17, 5.17 0, 15.51 0 M0 15.51 C0 5.17, 5.17 0, 15.51 0" stroke="#1e1e1e" stroke-width="1" fill="none"></path></g><g transform="translate(995.5233921098716 263.48989816274116) rotate(0 8.203125 16.799999999999997)"><text x="0" y="0" font-family="Cascadia, Segoe UI Emoji" font-size="28px" fill="#1e1e1e" text-anchor="start" style="white-space: pre;" direction="ltr" dominant-baseline="text-before-edge">D</text></g><g stroke-linecap="round"><g transform="translate(1032.3719834498697 249.56850258524733) rotate(0 -0.3070715945000302 30.14460317349632)"><path d="M0 0 C-0.1 10.05, -0.51 50.24, -0.61 60.29 M0 0 C-0.1 10.05, -0.51 50.24, -0.61 60.29" stroke="#1e1e1e" stroke-width="1" fill="none"></path></g></g><mask></mask><g transform="translate(1049.2170037292472 262.26161178474126) rotate(0 32.8125 16.799999999999997)"><text x="0" y="0" font-family="Cascadia, Segoe UI Emoji" font-size="28px" fill="#1e1e1e" text-anchor="start" style="white-space: pre;" direction="ltr" dominant-baseline="text-before-edge">next</text></g><g stroke-linecap="round"><g transform="translate(974.1364993022617 250.55298112850207) rotate(0 -0.3070715945000302 30.14460317349632)"><path d="M0 0 C-0.1 10.05, -0.51 50.24, -0.61 60.29 M0 0 C-0.1 10.05, -0.51 50.24, -0.61 60.29" stroke="#1e1e1e" stroke-width="1" fill="none"></path></g></g><mask></mask><g transform="translate(894.1149109510297 262.24221900470206) rotate(0 32.8125 16.799999999999997)"><text x="0" y="0" font-family="Cascadia, Segoe UI Emoji" font-size="28px" fill="#1e1e1e" text-anchor="start" style="white-space: pre;" direction="ltr" dominant-baseline="text-before-edge">prev</text></g><g stroke-linecap="round" transform="translate(1168.3458100412045 251.77719077847226) rotate(0 123.6067152411083 31.022778220076816)"><path d="M15.51 0 C83.68 0, 151.85 0, 231.7 0 M15.51 0 C100.59 0, 185.67 0, 231.7 0 M231.7 0 C242.04 0, 247.21 5.17, 247.21 15.51 M231.7 0 C242.04 0, 247.21 5.17, 247.21 15.51 M247.21 15.51 C247.21 26.95, 247.21 38.39, 247.21 46.53 M247.21 15.51 C247.21 26.72, 247.21 37.93, 247.21 46.53 M247.21 46.53 C247.21 56.88, 242.04 62.05, 231.7 62.05 M247.21 46.53 C247.21 56.88, 242.04 62.05, 231.7 62.05 M231.7 62.05 C174.09 62.05, 116.47 62.05, 15.51 62.05 M231.7 62.05 C163.56 62.05, 95.41 62.05, 15.51 62.05 M15.51 62.05 C5.17 62.05, 0 56.88, 0 46.53 M15.51 62.05 C5.17 62.05, 0 56.88, 0 46.53 M0 46.53 C0 38.56, 0 30.58, 0 15.51 M0 46.53 C0 35.01, 0 23.48, 0 15.51 M0 15.51 C0 5.17, 5.17 0, 15.51 0 M0 15.51 C0 5.17, 5.17 0, 15.51 0" stroke="#1e1e1e" stroke-width="1" fill="none"></path></g><g transform="translate(1285.1036718101113 266.57331715674) rotate(0 8.203125 16.799999999999997)"><text x="0" y="0" font-family="Cascadia, Segoe UI Emoji" font-size="28px" fill="#1e1e1e" text-anchor="start" style="white-space: pre;" direction="ltr" dominant-baseline="text-before-edge">E</text></g><g stroke-linecap="round"><g transform="translate(1321.9522631501113 252.6519215792462) rotate(0 -0.3070715945000302 30.14460317349632)"><path d="M0 0 C-0.1 10.05, -0.51 50.24, -0.61 60.29 M0 0 C-0.1 10.05, -0.51 50.24, -0.61 60.29" stroke="#1e1e1e" stroke-width="1" fill="none"></path></g></g><mask></mask><g transform="translate(1338.797283429487 265.3450307787401) rotate(0 32.8125 16.799999999999997)"><text x="0" y="0" font-family="Cascadia, Segoe UI Emoji" font-size="28px" fill="#1e1e1e" text-anchor="start" style="white-space: pre;" direction="ltr" dominant-baseline="text-before-edge">next</text></g><g stroke-linecap="round"><g transform="translate(1263.7167790024996 252.7192317021062) rotate(0 -0.3070715945000302 30.14460317349632)"><path d="M0 0 C-0.1 10.05, -0.51 50.24, -0.61 60.29 M0 0 C-0.1 10.05, -0.51 50.24, -0.61 60.29" stroke="#1e1e1e" stroke-width="1" fill="none"></path></g></g><mask></mask><g transform="translate(1183.6951906512713 264.40846957830627) rotate(0 32.8125 16.799999999999997)"><text x="0" y="0" font-family="Cascadia, Segoe UI Emoji" font-size="28px" fill="#1e1e1e" text-anchor="start" style="white-space: pre;" direction="ltr" dominant-baseline="text-before-edge">prev</text></g><g stroke-linecap="round"><g transform="translate(1126.8188517152284 279.21483772246506) rotate(0 20.47557662007648 0.02876674285651859)"><path d="M0 0 C6.83 0.01, 34.13 0.05, 40.95 0.06 M0 0 C6.83 0.01, 34.13 0.05, 40.95 0.06" stroke="#1e1e1e" stroke-width="1" fill="none"></path></g></g><mask></mask><g stroke-linecap="round"><g transform="translate(210.83236499628674 251.9663735475427) rotate(0 105.51570440038086 -25.738988358701143)"><path d="M0 0 C28.11 -8.56, 133.49 -49.12, 168.66 -51.37 C203.83 -53.62, 203.97 -19.82, 211.03 -13.51 M0 0 C28.11 -8.56, 133.49 -49.12, 168.66 -51.37 C203.83 -53.62, 203.97 -19.82, 211.03 -13.51" stroke="#1e1e1e" stroke-width="1" fill="none"></path></g><g transform="translate(210.83236499628674 251.9663735475427) rotate(0 105.51570440038086 -25.738988358701143)"><path d="M211.03 -13.51 L199.33 -22.89 L210.7 -28.5 L211.03 -13.51" stroke="none" stroke-width="0" fill="#1e1e1e" fill-rule="evenodd"></path><path d="M211.03 -13.51 C208.06 -15.89, 205.08 -18.28, 199.33 -22.89 M211.03 -13.51 C207.43 -16.4, 203.82 -19.29, 199.33 -22.89 M199.33 -22.89 C203.14 -24.77, 206.95 -26.65, 210.7 -28.5 M199.33 -22.89 C203.24 -24.82, 207.14 -26.75, 210.7 -28.5 M210.7 -28.5 C210.79 -24.51, 210.88 -20.51, 211.03 -13.51 M210.7 -28.5 C210.79 -24.44, 210.88 -20.37, 211.03 -13.51 M211.03 -13.51 C211.03 -13.51, 211.03 -13.51, 211.03 -13.51 M211.03 -13.51 C211.03 -13.51, 211.03 -13.51, 211.03 -13.51" stroke="#1e1e1e" stroke-width="1" fill="none"></path></g></g><mask></mask><g stroke-linecap="round"><g transform="translate(346.0248481331364 294.860556585627) rotate(0 -105.13506472051131 29.59298170257064)"><path d="M0 0 C-27.1 9.84, -127.57 56.5, -162.61 59.06 C-197.66 61.63, -202.33 22.68, -210.27 15.4 M0 0 C-27.1 9.84, -127.57 56.5, -162.61 59.06 C-197.66 61.63, -202.33 22.68, -210.27 15.4" stroke="#1e1e1e" stroke-width="1" fill="none"></path></g><g transform="translate(346.0248481331364 294.860556585627) rotate(0 -105.13506472051131 29.59298170257064)"><path d="M-210.27 15.4 L-198.19 24.29 L-209.31 30.37 L-210.27 15.4" stroke="none" stroke-width="0" fill="#1e1e1e" fill-rule="evenodd"></path><path d="M-210.27 15.4 C-206.98 17.82, -203.7 20.24, -198.19 24.29 M-210.27 15.4 C-206.04 18.52, -201.8 21.63, -198.19 24.29 M-198.19 24.29 C-200.79 25.71, -203.39 27.13, -209.31 30.37 M-198.19 24.29 C-202.24 26.5, -206.29 28.72, -209.31 30.37 M-209.31 30.37 C-209.57 26.38, -209.82 22.39, -210.27 15.4 M-209.31 30.37 C-209.61 25.65, -209.92 20.93, -210.27 15.4 M-210.27 15.4 C-210.27 15.4, -210.27 15.4, -210.27 15.4 M-210.27 15.4 C-210.27 15.4, -210.27 15.4, -210.27 15.4" stroke="#1e1e1e" stroke-width="1" fill="none"></path></g></g><mask></mask><g stroke-linecap="round"><g transform="translate(498.1481452901535 251.2855014640947) rotate(0 105.50397728592634 -25.738988358701143)"><path d="M0 0 C28.11 -8.56, 133.47 -49.12, 168.64 -51.37 C203.8 -53.62, 203.95 -19.82, 211.01 -13.51 M0 0 C28.11 -8.56, 133.47 -49.12, 168.64 -51.37 C203.8 -53.62, 203.95 -19.82, 211.01 -13.51" stroke="#1e1e1e" stroke-width="1" fill="none"></path></g><g transform="translate(498.1481452901535 251.2855014640947) rotate(0 105.50397728592634 -25.738988358701143)"><path d="M211.01 -13.51 L199.31 -22.89 L210.68 -28.5 L211.01 -13.51" stroke="none" stroke-width="0" fill="#1e1e1e" fill-rule="evenodd"></path><path d="M211.01 -13.51 C208.27 -15.7, 205.53 -17.9, 199.31 -22.89 M211.01 -13.51 C208.48 -15.54, 205.95 -17.57, 199.31 -22.89 M199.31 -22.89 C203.47 -24.95, 207.63 -27, 210.68 -28.5 M199.31 -22.89 C202.43 -24.43, 205.55 -25.97, 210.68 -28.5 M210.68 -28.5 C210.78 -24, 210.88 -19.5, 211.01 -13.51 M210.68 -28.5 C210.81 -22.55, 210.94 -16.6, 211.01 -13.51 M211.01 -13.51 C211.01 -13.51, 211.01 -13.51, 211.01 -13.51 M211.01 -13.51 C211.01 -13.51, 211.01 -13.51, 211.01 -13.51" stroke="#1e1e1e" stroke-width="1" fill="none"></path></g></g><mask></mask><g stroke-linecap="round"><g transform="translate(632.9783148074093 295.09685292257365) rotate(0 -104.77659688573385 29.13475983293489)"><path d="M0 0 C-27.05 9.69, -127.35 55.6, -162.27 58.15 C-197.2 60.7, -201.67 22.45, -209.55 15.31 M0 0 C-27.05 9.69, -127.35 55.6, -162.27 58.15 C-197.2 60.7, -201.67 22.45, -209.55 15.31" stroke="#1e1e1e" stroke-width="1" fill="none"></path></g><g transform="translate(632.9783148074093 295.09685292257365) rotate(0 -104.77659688573385 29.13475983293489)"><path d="M-209.55 15.31 L-197.45 24.17 L-208.56 30.28 L-209.55 15.31" stroke="none" stroke-width="0" fill="#1e1e1e" fill-rule="evenodd"></path><path d="M-209.55 15.31 C-205.75 18.09, -201.95 20.88, -197.45 24.17 M-209.55 15.31 C-206.59 17.48, -203.62 19.65, -197.45 24.17 M-197.45 24.17 C-200.22 25.69, -202.99 27.21, -208.56 30.28 M-197.45 24.17 C-201.79 26.55, -206.13 28.94, -208.56 30.28 M-208.56 30.28 C-208.82 26.32, -209.08 22.37, -209.55 15.31 M-208.56 30.28 C-208.78 26.93, -209 23.59, -209.55 15.31 M-209.55 15.31 C-209.55 15.31, -209.55 15.31, -209.55 15.31 M-209.55 15.31 C-209.55 15.31, -209.55 15.31, -209.55 15.31" stroke="#1e1e1e" stroke-width="1" fill="none"></path></g></g><mask></mask><g stroke-linecap="round"><g transform="translate(786.3558789007948 255.84011926337342) rotate(0 105.46605034482263 -26.21363714185523)"><path d="M0 0 C28.17 -8.71, 133.88 -49.73, 169.03 -52.29 C204.19 -54.84, 203.95 -21.5, 210.93 -15.34 M0 0 C28.17 -8.71, 133.88 -49.73, 169.03 -52.29 C204.19 -54.84, 203.95 -21.5, 210.93 -15.34" stroke="#1e1e1e" stroke-width="1" fill="none"></path></g><g transform="translate(786.3558789007948 255.84011926337342) rotate(0 105.46605034482263 -26.21363714185523)"><path d="M210.93 -15.34 L199.25 -24.75 L210.63 -30.34 L210.93 -15.34" stroke="none" stroke-width="0" fill="#1e1e1e" fill-rule="evenodd"></path><path d="M210.93 -15.34 C206.63 -18.81, 202.32 -22.28, 199.25 -24.75 M210.93 -15.34 C206.71 -18.74, 202.49 -22.14, 199.25 -24.75 M199.25 -24.75 C202.38 -26.29, 205.51 -27.82, 210.63 -30.34 M199.25 -24.75 C203.5 -26.84, 207.74 -28.92, 210.63 -30.34 M210.63 -30.34 C210.7 -27.07, 210.76 -23.8, 210.93 -15.34 M210.63 -30.34 C210.73 -25.74, 210.82 -21.15, 210.93 -15.34 M210.93 -15.34 C210.93 -15.34, 210.93 -15.34, 210.93 -15.34 M210.93 -15.34 C210.93 -15.34, 210.93 -15.34, 210.93 -15.34" stroke="#1e1e1e" stroke-width="1" fill="none"></path></g></g><mask></mask><g stroke-linecap="round"><g transform="translate(921.5827162758214 298.73430230145766) rotate(0 -104.57542090335346 29.14316093741445)"><path d="M0 0 C-27.05 9.69, -127.41 55.44, -162.27 58.15 C-197.13 60.85, -201.34 23.21, -209.15 16.23 M0 0 C-27.05 9.69, -127.41 55.44, -162.27 58.15 C-197.13 60.85, -201.34 23.21, -209.15 16.23" stroke="#1e1e1e" stroke-width="1" fill="none"></path></g><g transform="translate(921.5827162758214 298.73430230145766) rotate(0 -104.57542090335346 29.14316093741445)"><path d="M-209.15 16.23 L-197.03 25.06 L-208.13 31.19 L-209.15 16.23" stroke="none" stroke-width="0" fill="#1e1e1e" fill-rule="evenodd"></path><path d="M-209.15 16.23 C-205.28 19.05, -201.41 21.87, -197.03 25.06 M-209.15 16.23 C-205.02 19.24, -200.88 22.26, -197.03 25.06 M-197.03 25.06 C-201.35 27.45, -205.68 29.84, -208.13 31.19 M-197.03 25.06 C-201.38 27.47, -205.74 29.87, -208.13 31.19 M-208.13 31.19 C-208.51 25.67, -208.88 20.15, -209.15 16.23 M-208.13 31.19 C-208.36 27.79, -208.59 24.38, -209.15 16.23 M-209.15 16.23 C-209.15 16.23, -209.15 16.23, -209.15 16.23 M-209.15 16.23 C-209.15 16.23, -209.15 16.23, -209.15 16.23" stroke="#1e1e1e" stroke-width="1" fill="none"></path></g></g><mask></mask><g stroke-linecap="round"><g transform="translate(1081.2052334756463 257.8529062278367) rotate(0 105.50789201650741 -25.738988358701143)"><path d="M0 0 C28.11 -8.56, 133.48 -49.12, 168.64 -51.37 C203.81 -53.62, 203.95 -19.82, 211.02 -13.51 M0 0 C28.11 -8.56, 133.48 -49.12, 168.64 -51.37 C203.81 -53.62, 203.95 -19.82, 211.02 -13.51" stroke="#1e1e1e" stroke-width="1" fill="none"></path></g><g transform="translate(1081.2052334756463 257.8529062278367) rotate(0 105.50789201650741 -25.738988358701143)"><path d="M211.02 -13.51 L199.31 -22.89 L210.68 -28.5 L211.02 -13.51" stroke="none" stroke-width="0" fill="#1e1e1e" fill-rule="evenodd"></path><path d="M211.02 -13.51 C208.22 -15.75, 205.42 -18, 199.31 -22.89 M211.02 -13.51 C206.61 -17.04, 202.2 -20.58, 199.31 -22.89 M199.31 -22.89 C202.52 -24.48, 205.73 -26.06, 210.68 -28.5 M199.31 -22.89 C203.81 -25.11, 208.3 -27.33, 210.68 -28.5 M210.68 -28.5 C210.8 -23.17, 210.92 -17.84, 211.02 -13.51 M210.68 -28.5 C210.75 -25.44, 210.82 -22.39, 211.02 -13.51 M211.02 -13.51 C211.02 -13.51, 211.02 -13.51, 211.02 -13.51 M211.02 -13.51 C211.02 -13.51, 211.02 -13.51, 211.02 -13.51" stroke="#1e1e1e" stroke-width="1" fill="none"></path></g></g><mask></mask><g stroke-linecap="round"><g transform="translate(1216.0432324540634 301.66425768631564) rotate(0 -104.78655154619128 29.134759832934876)"><path d="M0 0 C-27.05 9.69, -127.34 55.6, -162.27 58.15 C-197.2 60.7, -201.69 22.45, -209.57 15.31 M0 0 C-27.05 9.69, -127.34 55.6, -162.27 58.15 C-197.2 60.7, -201.69 22.45, -209.57 15.31" stroke="#1e1e1e" stroke-width="1" fill="none"></path></g><g transform="translate(1216.0432324540634 301.66425768631564) rotate(0 -104.78655154619128 29.134759832934876)"><path d="M-209.57 15.31 L-197.46 24.16 L-208.57 30.28 L-209.57 15.31" stroke="none" stroke-width="0" fill="#1e1e1e" fill-rule="evenodd"></path><path d="M-209.57 15.31 C-205.52 18.28, -201.46 21.24, -197.46 24.16 M-209.57 15.31 C-205.41 18.35, -201.25 21.39, -197.46 24.16 M-197.46 24.16 C-200.42 25.79, -203.38 27.42, -208.57 30.28 M-197.46 24.16 C-200.47 25.82, -203.48 27.48, -208.57 30.28 M-208.57 30.28 C-208.8 26.79, -209.04 23.31, -209.57 15.31 M-208.57 30.28 C-208.92 24.99, -209.28 19.7, -209.57 15.31 M-209.57 15.31 C-209.57 15.31, -209.57 15.31, -209.57 15.31 M-209.57 15.31 C-209.57 15.31, -209.57 15.31, -209.57 15.31" stroke="#1e1e1e" stroke-width="1" fill="none"></path></g></g><mask></mask><g transform="translate(112.17569680560882 10) rotate(0 32.8125 16.8)"><text x="0" y="0" font-family="Cascadia, Segoe UI Emoji" font-size="28px" fill="#1e1e1e" text-anchor="start" style="white-space: pre;" direction="ltr" dominant-baseline="text-before-edge">HEAD</text></g><g stroke-linecap="round"><g transform="translate(134.6314077095567 55.20829447944158) rotate(0 -0.5184453775618749 89.13680607111843)"><path d="M0 0 C-0.17 29.71, -0.86 148.56, -1.04 178.27 M0 0 C-0.17 29.71, -0.86 148.56, -1.04 178.27" stroke="#1e1e1e" stroke-width="1" fill="none"></path></g><g transform="translate(134.6314077095567 55.20829447944158) rotate(0 -0.5184453775618749 89.13680607111843)"><path d="M-1.04 178.27 L-7.3 164.64 L5.38 164.72 L-1.04 178.27" stroke="none" stroke-width="0" fill="#1e1e1e" fill-rule="evenodd"></path><path d="M-1.04 178.27 C-3.33 173.29, -5.62 168.3, -7.3 164.64 M-1.04 178.27 C-2.76 174.53, -4.47 170.79, -7.3 164.64 M-7.3 164.64 C-3.49 164.66, 0.31 164.69, 5.38 164.72 M-7.3 164.64 C-2.27 164.67, 2.77 164.7, 5.38 164.72 M5.38 164.72 C3.04 169.67, 0.69 174.62, -1.04 178.27 M5.38 164.72 C3.82 168, 2.27 171.29, -1.04 178.27 M-1.04 178.27 C-1.04 178.27, -1.04 178.27, -1.04 178.27 M-1.04 178.27 C-1.04 178.27, -1.04 178.27, -1.04 178.27" stroke="#1e1e1e" stroke-width="1" fill="none"></path></g></g><mask></mask><g transform="translate(1335.514281438861 85.1386091074603) rotate(0 32.8125 16.8)"><text x="0" y="0" font-family="Cascadia, Segoe UI Emoji" font-size="28px" fill="#1e1e1e" text-anchor="start" style="white-space: pre;" direction="ltr" dominant-baseline="text-before-edge">null</text></g><g stroke-linecap="round"><g transform="translate(1366.9641530547951 253.49586664970786) rotate(0 0.411484411294623 -64.22506451746978)"><path d="M0 0 C0.14 -21.41, 0.69 -107.04, 0.82 -128.45 M0 0 C0.14 -21.41, 0.69 -107.04, 0.82 -128.45" stroke="#1e1e1e" stroke-width="1" fill="none"></path></g><g transform="translate(1366.9641530547951 253.49586664970786) rotate(0 0.411484411294623 -64.22506451746978)"><path d="M0.82 -128.45 L7.08 -114.82 L-5.6 -114.9 L0.82 -128.45" stroke="none" stroke-width="0" fill="#1e1e1e" fill-rule="evenodd"></path><path d="M0.82 -128.45 C2.83 -124.08, 4.83 -119.71, 7.08 -114.82 M0.82 -128.45 C2.72 -124.32, 4.61 -120.2, 7.08 -114.82 M7.08 -114.82 C2.31 -114.85, -2.46 -114.88, -5.6 -114.9 M7.08 -114.82 C4.35 -114.83, 1.63 -114.85, -5.6 -114.9 M-5.6 -114.9 C-3.23 -119.9, -0.86 -124.91, 0.82 -128.45 M-5.6 -114.9 C-3.04 -120.3, -0.48 -125.7, 0.82 -128.45 M0.82 -128.45 C0.82 -128.45, 0.82 -128.45, 0.82 -128.45 M0.82 -128.45 C0.82 -128.45, 0.82 -128.45, 0.82 -128.45" stroke="#1e1e1e" stroke-width="1" fill="none"></path></g></g><mask></mask><g transform="translate(23.53835169903141 77.7915439009173) rotate(0 32.8125 16.8)"><text x="0" y="0" font-family="Cascadia, Segoe UI Emoji" font-size="28px" fill="#1e1e1e" text-anchor="start" style="white-space: pre;" direction="ltr" dominant-baseline="text-before-edge">null</text></g><g stroke-linecap="round"><g transform="translate(54.98822331496558 246.14880144316487) rotate(0 0.411484411294623 -64.22506451746978)"><path d="M0 0 C0.14 -21.41, 0.69 -107.04, 0.82 -128.45 M0 0 C0.14 -21.41, 0.69 -107.04, 0.82 -128.45" stroke="#1e1e1e" stroke-width="1" fill="none"></path></g><g transform="translate(54.98822331496558 246.14880144316487) rotate(0 0.411484411294623 -64.22506451746978)"><path d="M0.82 -128.45 L7.08 -114.82 L-5.6 -114.9 L0.82 -128.45" stroke="none" stroke-width="0" fill="#1e1e1e" fill-rule="evenodd"></path><path d="M0.82 -128.45 C2.34 -125.14, 3.85 -121.84, 7.08 -114.82 M0.82 -128.45 C3.3 -123.04, 5.79 -117.63, 7.08 -114.82 M7.08 -114.82 C3.72 -114.84, 0.36 -114.86, -5.6 -114.9 M7.08 -114.82 C2.22 -114.85, -2.63 -114.88, -5.6 -114.9 M-5.6 -114.9 C-4.09 -118.09, -2.58 -121.28, 0.82 -128.45 M-5.6 -114.9 C-3.91 -118.47, -2.21 -122.05, 0.82 -128.45 M0.82 -128.45 C0.82 -128.45, 0.82 -128.45, 0.82 -128.45 M0.82 -128.45 C0.82 -128.45, 0.82 -128.45, 0.82 -128.45" stroke="#1e1e1e" stroke-width="1" fill="none"></path></g></g><mask></mask></svg>