<svg version="1.1" xmlns="http://www.w3.org/2000/svg" viewBox="0 0 1047.4369135318311 246.10273370684763" width="1047.4369135318311" height="246.10273370684763" filter="invert(93%) hue-rotate(180deg)">
  <!-- svg-source:excalidraw -->
  
  <defs>
    <style class="style-fonts">
      @font-face {
        font-family: "Virgil";
        src: url("https://excalidraw.com/Virgil.woff2");
      }
      @font-face {
        font-family: "Cascadia";
        src: url("https://excalidraw.com/Cascadia.woff2");
      }
    </style>
    
  </defs>
  <rect x="0" y="0" width="1047.4369135318311" height="246.10273370684763" fill="#ffffff"></rect><g stroke-linecap="round" transform="translate(21.582275328667492 173.1682127290228) rotate(0 74.2216505384331 31.022778220076816)"><path d="M15.51 0 C39.35 0, 63.18 0, 132.93 0 M15.51 0 C52.97 0, 90.43 0, 132.93 0 M132.93 0 C143.27 0, 148.44 5.17, 148.44 15.51 M132.93 0 C143.27 0, 148.44 5.17, 148.44 15.51 M148.44 15.51 C148.44 22.51, 148.44 29.51, 148.44 46.53 M148.44 15.51 C148.44 25.72, 148.44 35.93, 148.44 46.53 M148.44 46.53 C148.44 56.88, 143.27 62.05, 132.93 62.05 M148.44 46.53 C148.44 56.88, 143.27 62.05, 132.93 62.05 M132.93 62.05 C95.45 62.05, 57.96 62.05, 15.51 62.05 M132.93 62.05 C92.72 62.05, 52.51 62.05, 15.51 62.05 M15.51 62.05 C5.17 62.05, 0 56.88, 0 46.53 M15.51 62.05 C5.17 62.05, 0 56.88, 0 46.53 M0 46.53 C0 37.99, 0 29.44, 0 15.51 M0 46.53 C0 35.09, 0 23.65, 0 15.51 M0 15.51 C0 5.17, 5.17 0, 15.51 0 M0 15.51 C0 5.17, 5.17 0, 15.51 0" stroke="#1e1e1e" stroke-width="1" fill="none"></path></g><g transform="translate(39.570007692223044 187.9643391072907) rotate(0 8.203125 16.80000000000001)"><text x="0" y="0" font-family="Cascadia, Segoe UI Emoji" font-size="28px" fill="#1e1e1e" text-anchor="start" style="white-space: pre;" direction="ltr" dominant-baseline="text-before-edge">A</text></g><g stroke-linecap="round"><g transform="translate(76.41859903222121 174.04294352979673) rotate(0 -0.3070715945000302 30.144603173496307)"><path d="M0 0 C-0.1 10.05, -0.51 50.24, -0.61 60.29 M0 0 C-0.1 10.05, -0.51 50.24, -0.61 60.29" stroke="#1e1e1e" stroke-width="1" fill="none"></path></g></g><mask></mask><g transform="translate(93.26361931159863 186.7360527292907) rotate(0 32.8125 16.80000000000001)"><text x="0" y="0" font-family="Cascadia, Segoe UI Emoji" font-size="28px" fill="#1e1e1e" text-anchor="start" style="white-space: pre;" direction="ltr" dominant-baseline="text-before-edge">next</text></g><g transform="translate(10 13.98201055179834) rotate(0 32.8125 16.80000000000001)"><text x="0" y="0" font-family="Cascadia, Segoe UI Emoji" font-size="28px" fill="#1e1e1e" text-anchor="start" style="white-space: pre;" direction="ltr" dominant-baseline="text-before-edge">HEAD</text></g><g stroke-linecap="round"><g transform="translate(46.10199599091811 51.02044846700869) rotate(0 -0.9330328272121733 56.25375820639215)"><path d="M0 0 C-0.31 18.75, -1.56 93.76, -1.87 112.51 M0 0 C-0.31 18.75, -1.56 93.76, -1.87 112.51" stroke="#1e1e1e" stroke-width="1" fill="none"></path></g><g transform="translate(46.10199599091811 51.02044846700869) rotate(0 -0.9330328272121733 56.25375820639215)"><path d="M-1.87 112.51 L-7.98 98.81 L4.7 99.02 L-1.87 112.51" stroke="none" stroke-width="0" fill="#1e1e1e" fill-rule="evenodd"></path><path d="M-1.87 112.51 C-4.14 107.41, -6.42 102.3, -7.98 98.81 M-1.87 112.51 C-3.14 109.66, -4.41 106.81, -7.98 98.81 M-7.98 98.81 C-4.68 98.86, -1.39 98.92, 4.7 99.02 M-7.98 98.81 C-4.75 98.86, -1.52 98.92, 4.7 99.02 M4.7 99.02 C2.45 103.63, 0.21 108.25, -1.87 112.51 M4.7 99.02 C2.47 103.59, 0.25 108.16, -1.87 112.51 M-1.87 112.51 C-1.87 112.51, -1.87 112.51, -1.87 112.51 M-1.87 112.51 C-1.87 112.51, -1.87 112.51, -1.87 112.51" stroke="#1e1e1e" stroke-width="1" fill="none"></path></g></g><mask></mask><g stroke-linecap="round" transform="translate(236.83359670515983 173.7133155350814) rotate(0 74.2216505384331 31.022778220076816)"><path d="M15.51 0 C47.02 0, 78.53 0, 132.93 0 M15.51 0 C39.66 0, 63.8 0, 132.93 0 M132.93 0 C143.27 0, 148.44 5.17, 148.44 15.51 M132.93 0 C143.27 0, 148.44 5.17, 148.44 15.51 M148.44 15.51 C148.44 22.38, 148.44 29.25, 148.44 46.53 M148.44 15.51 C148.44 26.25, 148.44 36.98, 148.44 46.53 M148.44 46.53 C148.44 56.88, 143.27 62.05, 132.93 62.05 M148.44 46.53 C148.44 56.88, 143.27 62.05, 132.93 62.05 M132.93 62.05 C101.49 62.05, 70.04 62.05, 15.51 62.05 M132.93 62.05 C87.32 62.05, 41.7 62.05, 15.51 62.05 M15.51 62.05 C5.17 62.05, 0 56.88, 0 46.53 M15.51 62.05 C5.17 62.05, 0 56.88, 0 46.53 M0 46.53 C0 36.06, 0 25.58, 0 15.51 M0 46.53 C0 38.93, 0 31.33, 0 15.51 M0 15.51 C0 5.17, 5.17 0, 15.51 0 M0 15.51 C0 5.17, 5.17 0, 15.51 0" stroke="#1e1e1e" stroke-width="1" fill="none"></path></g><g transform="translate(254.8213290687154 188.5094419133493) rotate(0 8.203125 16.80000000000001)"><text x="0" y="0" font-family="Cascadia, Segoe UI Emoji" font-size="28px" fill="#1e1e1e" text-anchor="start" style="white-space: pre;" direction="ltr" dominant-baseline="text-before-edge">B</text></g><g stroke-linecap="round"><g transform="translate(291.66992040871537 174.58804633585532) rotate(0 -0.3070715945000302 30.144603173496307)"><path d="M0 0 C-0.1 10.05, -0.51 50.24, -0.61 60.29 M0 0 C-0.1 10.05, -0.51 50.24, -0.61 60.29" stroke="#1e1e1e" stroke-width="1" fill="none"></path></g></g><mask></mask><g transform="translate(308.514940688091 187.28115553534928) rotate(0 32.8125 16.80000000000001)"><text x="0" y="0" font-family="Cascadia, Segoe UI Emoji" font-size="28px" fill="#1e1e1e" text-anchor="start" style="white-space: pre;" direction="ltr" dominant-baseline="text-before-edge">next</text></g><g stroke-linecap="round"><g transform="translate(162.85084091822046 204.73609375515764) rotate(0 35.07389662456535 0.1719308658067007)"><path d="M0 0 C11.69 0.06, 58.46 0.29, 70.15 0.34 M0 0 C11.69 0.06, 58.46 0.29, 70.15 0.34" stroke="#1e1e1e" stroke-width="1" fill="none"></path></g><g transform="translate(162.85084091822046 204.73609375515764) rotate(0 35.07389662456535 0.1719308658067007)"><path d="M70.15 0.34 L56.52 6.62 L56.58 -6.06 L70.15 0.34" stroke="none" stroke-width="0" fill="#1e1e1e" fill-rule="evenodd"></path><path d="M70.15 0.34 C65.14 2.65, 60.13 4.96, 56.52 6.62 M70.15 0.34 C65.78 2.36, 61.41 4.37, 56.52 6.62 M56.52 6.62 C56.54 3.81, 56.55 1, 56.58 -6.06 M56.52 6.62 C56.54 2.23, 56.57 -2.16, 56.58 -6.06 M56.58 -6.06 C59.92 -4.49, 63.26 -2.91, 70.15 0.34 M56.58 -6.06 C61.41 -3.78, 66.23 -1.51, 70.15 0.34 M70.15 0.34 C70.15 0.34, 70.15 0.34, 70.15 0.34 M70.15 0.34 C70.15 0.34, 70.15 0.34, 70.15 0.34" stroke="#1e1e1e" stroke-width="1" fill="none"></path></g></g><mask></mask><g stroke-linecap="round" transform="translate(455.0401071588776 173.71331553508082) rotate(0 74.2216505384331 31.022778220076816)"><path d="M15.51 0 C42.01 0, 68.51 0, 132.93 0 M15.51 0 C54.15 0, 92.79 0, 132.93 0 M132.93 0 C143.27 0, 148.44 5.17, 148.44 15.51 M132.93 0 C143.27 0, 148.44 5.17, 148.44 15.51 M148.44 15.51 C148.44 25.41, 148.44 35.32, 148.44 46.53 M148.44 15.51 C148.44 26.14, 148.44 36.76, 148.44 46.53 M148.44 46.53 C148.44 56.88, 143.27 62.05, 132.93 62.05 M148.44 46.53 C148.44 56.88, 143.27 62.05, 132.93 62.05 M132.93 62.05 C100.58 62.05, 68.23 62.05, 15.51 62.05 M132.93 62.05 C89.62 62.05, 46.31 62.05, 15.51 62.05 M15.51 62.05 C5.17 62.05, 0 56.88, 0 46.53 M15.51 62.05 C5.17 62.05, 0 56.88, 0 46.53 M0 46.53 C0 38.92, 0 31.31, 0 15.51 M0 46.53 C0 35.93, 0 25.32, 0 15.51 M0 15.51 C0 5.17, 5.17 0, 15.51 0 M0 15.51 C0 5.17, 5.17 0, 15.51 0" stroke="#1e1e1e" stroke-width="1" fill="none"></path></g><g transform="translate(473.02783952243317 187.8434831268853) rotate(0 8.203125 16.80000000000001)"><text x="0" y="0" font-family="Cascadia, Segoe UI Emoji" font-size="28px" fill="#1e1e1e" text-anchor="start" style="white-space: pre;" direction="ltr" dominant-baseline="text-before-edge">C</text></g><g stroke-linecap="round"><g transform="translate(509.87643086243315 174.58804633585464) rotate(0 -0.3070715945000302 30.144603173496307)"><path d="M0 0 C-0.1 10.05, -0.51 50.24, -0.61 60.29 M0 0 C-0.1 10.05, -0.51 50.24, -0.61 60.29" stroke="#1e1e1e" stroke-width="1" fill="none"></path></g></g><mask></mask><g transform="translate(526.7214511418088 187.2811555353486) rotate(0 32.8125 16.80000000000001)"><text x="0" y="0" font-family="Cascadia, Segoe UI Emoji" font-size="28px" fill="#1e1e1e" text-anchor="start" style="white-space: pre;" direction="ltr" dominant-baseline="text-before-edge">next</text></g><g stroke-linecap="round"><g transform="translate(381.05735137193824 204.73609375515696) rotate(0 35.07389662456535 0.1719308658067007)"><path d="M0 0 C11.69 0.06, 58.46 0.29, 70.15 0.34 M0 0 C11.69 0.06, 58.46 0.29, 70.15 0.34" stroke="#1e1e1e" stroke-width="1" fill="none"></path></g><g transform="translate(381.05735137193824 204.73609375515696) rotate(0 35.07389662456535 0.1719308658067007)"><path d="M70.15 0.34 L56.52 6.62 L56.58 -6.06 L70.15 0.34" stroke="none" stroke-width="0" fill="#1e1e1e" fill-rule="evenodd"></path><path d="M70.15 0.34 C65.72 2.38, 61.29 4.42, 56.52 6.62 M70.15 0.34 C64.71 2.85, 59.28 5.35, 56.52 6.62 M56.52 6.62 C56.54 2.57, 56.56 -1.48, 56.58 -6.06 M56.52 6.62 C56.54 2.27, 56.56 -2.07, 56.58 -6.06 M56.58 -6.06 C59.36 -4.75, 62.14 -3.44, 70.15 0.34 M56.58 -6.06 C61.91 -3.55, 67.24 -1.03, 70.15 0.34 M70.15 0.34 C70.15 0.34, 70.15 0.34, 70.15 0.34 M70.15 0.34 C70.15 0.34, 70.15 0.34, 70.15 0.34" stroke="#1e1e1e" stroke-width="1" fill="none"></path></g></g><mask></mask><g stroke-linecap="round" transform="translate(672.3607215385337 173.43774887222685) rotate(0 74.2216505384331 31.022778220076816)"><path d="M15.51 0 C40.4 0, 65.29 0, 132.93 0 M15.51 0 C45.25 0, 74.98 0, 132.93 0 M132.93 0 C143.27 0, 148.44 5.17, 148.44 15.51 M132.93 0 C143.27 0, 148.44 5.17, 148.44 15.51 M148.44 15.51 C148.44 23.51, 148.44 31.51, 148.44 46.53 M148.44 15.51 C148.44 22.87, 148.44 30.23, 148.44 46.53 M148.44 46.53 C148.44 56.88, 143.27 62.05, 132.93 62.05 M148.44 46.53 C148.44 56.88, 143.27 62.05, 132.93 62.05 M132.93 62.05 C107.51 62.05, 82.1 62.05, 15.51 62.05 M132.93 62.05 C86.27 62.05, 39.62 62.05, 15.51 62.05 M15.51 62.05 C5.17 62.05, 0 56.88, 0 46.53 M15.51 62.05 C5.17 62.05, 0 56.88, 0 46.53 M0 46.53 C0 36.25, 0 25.97, 0 15.51 M0 46.53 C0 38.26, 0 29.98, 0 15.51 M0 15.51 C0 5.17, 5.17 0, 15.51 0 M0 15.51 C0 5.17, 5.17 0, 15.51 0" stroke="#1e1e1e" stroke-width="1" fill="none"></path></g><g transform="translate(690.3484539020892 186.94848806956418) rotate(0 8.203125 16.80000000000001)"><text x="0" y="0" font-family="Cascadia, Segoe UI Emoji" font-size="28px" fill="#1e1e1e" text-anchor="start" style="white-space: pre;" direction="ltr" dominant-baseline="text-before-edge">D</text></g><g stroke-linecap="round"><g transform="translate(727.1970452420856 174.31247967300078) rotate(0 -0.3070715945000302 30.144603173496307)"><path d="M0 0 C-0.1 10.05, -0.51 50.24, -0.61 60.29 M0 0 C-0.1 10.05, -0.51 50.24, -0.61 60.29" stroke="#1e1e1e" stroke-width="1" fill="none"></path></g></g><mask></mask><g transform="translate(744.0420655214648 187.00558887249474) rotate(0 32.8125 16.80000000000001)"><text x="0" y="0" font-family="Cascadia, Segoe UI Emoji" font-size="28px" fill="#1e1e1e" text-anchor="start" style="white-space: pre;" direction="ltr" dominant-baseline="text-before-edge">next</text></g><g stroke-linecap="round"><g transform="translate(598.3779657515943 205.07995548677025) rotate(0 35.07389662456535 0.023618373939569892)"><path d="M0 0 C11.69 0.01, 58.46 0.04, 70.15 0.05 M0 0 C11.69 0.01, 58.46 0.04, 70.15 0.05" stroke="#1e1e1e" stroke-width="1" fill="none"></path></g><g transform="translate(598.3779657515943 205.07995548677025) rotate(0 35.07389662456535 0.023618373939569892)"><path d="M70.15 0.05 L56.55 6.38 L56.56 -6.3 L70.15 0.05" stroke="none" stroke-width="0" fill="#1e1e1e" fill-rule="evenodd"></path><path d="M70.15 0.05 C66.11 1.92, 62.08 3.8, 56.55 6.38 M70.15 0.05 C66.71 1.65, 63.27 3.25, 56.55 6.38 M56.55 6.38 C56.55 3.11, 56.55 -0.16, 56.56 -6.3 M56.55 6.38 C56.55 3.37, 56.55 0.36, 56.56 -6.3 M56.56 -6.3 C61.02 -4.22, 65.48 -2.13, 70.15 0.05 M56.56 -6.3 C59.61 -4.88, 62.66 -3.45, 70.15 0.05 M70.15 0.05 C70.15 0.05, 70.15 0.05, 70.15 0.05 M70.15 0.05 C70.15 0.05, 70.15 0.05, 70.15 0.05" stroke="#1e1e1e" stroke-width="1" fill="none"></path></g></g><mask></mask><g stroke-linecap="round" transform="translate(888.9936124549649 174.057177266694) rotate(0 74.2216505384331 31.022778220076816)"><path d="M15.51 0 C49.71 0, 83.92 0, 132.93 0 M15.51 0 C51 0, 86.49 0, 132.93 0 M132.93 0 C143.27 0, 148.44 5.17, 148.44 15.51 M132.93 0 C143.27 0, 148.44 5.17, 148.44 15.51 M148.44 15.51 C148.44 23.08, 148.44 30.64, 148.44 46.53 M148.44 15.51 C148.44 24.94, 148.44 34.37, 148.44 46.53 M148.44 46.53 C148.44 56.88, 143.27 62.05, 132.93 62.05 M148.44 46.53 C148.44 56.88, 143.27 62.05, 132.93 62.05 M132.93 62.05 C95.56 62.05, 58.19 62.05, 15.51 62.05 M132.93 62.05 C89.61 62.05, 46.29 62.05, 15.51 62.05 M15.51 62.05 C5.17 62.05, 0 56.88, 0 46.53 M15.51 62.05 C5.17 62.05, 0 56.88, 0 46.53 M0 46.53 C0 39.63, 0 32.73, 0 15.51 M0 46.53 C0 36.98, 0 27.43, 0 15.51 M0 15.51 C0 5.17, 5.17 0, 15.51 0 M0 15.51 C0 5.17, 5.17 0, 15.51 0" stroke="#1e1e1e" stroke-width="1" fill="none"></path></g><g transform="translate(906.9813448185205 188.8533036449619) rotate(0 8.203125 16.80000000000001)"><text x="0" y="0" font-family="Cascadia, Segoe UI Emoji" font-size="28px" fill="#1e1e1e" text-anchor="start" style="white-space: pre;" direction="ltr" dominant-baseline="text-before-edge">E</text></g><g stroke-linecap="round"><g transform="translate(943.8299361585186 174.93190806746793) rotate(0 -0.3070715945000302 30.144603173496307)"><path d="M0 0 C-0.1 10.05, -0.51 50.24, -0.61 60.29 M0 0 C-0.1 10.05, -0.51 50.24, -0.61 60.29" stroke="#1e1e1e" stroke-width="1" fill="none"></path></g></g><mask></mask><g transform="translate(960.6749564378961 187.6250172669619) rotate(0 32.8125 16.80000000000001)"><text x="0" y="0" font-family="Cascadia, Segoe UI Emoji" font-size="28px" fill="#1e1e1e" text-anchor="start" style="white-space: pre;" direction="ltr" dominant-baseline="text-before-edge">next</text></g><g stroke-linecap="round"><g transform="translate(815.0108566680256 204.68208147095163) rotate(0 35.07389662456535 0.2671956086927594)"><path d="M0 0 C11.69 0.09, 58.46 0.45, 70.15 0.53 M0 0 C11.69 0.09, 58.46 0.45, 70.15 0.53" stroke="#1e1e1e" stroke-width="1" fill="none"></path></g><g transform="translate(815.0108566680256 204.68208147095163) rotate(0 35.07389662456535 0.2671956086927594)"><path d="M70.15 0.53 L56.51 6.77 L56.6 -5.91 L70.15 0.53" stroke="none" stroke-width="0" fill="#1e1e1e" fill-rule="evenodd"></path><path d="M70.15 0.53 C67.05 1.95, 63.95 3.37, 56.51 6.77 M70.15 0.53 C65.62 2.6, 61.1 4.67, 56.51 6.77 M56.51 6.77 C56.53 3.68, 56.55 0.59, 56.6 -5.91 M56.51 6.77 C56.53 2.92, 56.56 -0.94, 56.6 -5.91 M56.6 -5.91 C61.18 -3.73, 65.75 -1.56, 70.15 0.53 M56.6 -5.91 C59.92 -4.33, 63.24 -2.75, 70.15 0.53 M70.15 0.53 C70.15 0.53, 70.15 0.53, 70.15 0.53 M70.15 0.53 C70.15 0.53, 70.15 0.53, 70.15 0.53" stroke="#1e1e1e" stroke-width="1" fill="none"></path></g></g><mask></mask><g transform="translate(954.4617034526127 10) rotate(0 32.8125 16.80000000000001)"><text x="0" y="0" font-family="Cascadia, Segoe UI Emoji" font-size="28px" fill="#1e1e1e" text-anchor="start" style="white-space: pre;" direction="ltr" dominant-baseline="text-before-edge">null</text></g><g stroke-linecap="round"><g transform="translate(985.9115750685469 178.35725754224757) rotate(0 0.411484411294623 -64.22506451746978)"><path d="M0 0 C0.14 -21.41, 0.69 -107.04, 0.82 -128.45 M0 0 C0.14 -21.41, 0.69 -107.04, 0.82 -128.45" stroke="#1e1e1e" stroke-width="1" fill="none"></path></g><g transform="translate(985.9115750685469 178.35725754224757) rotate(0 0.411484411294623 -64.22506451746978)"><path d="M0.82 -128.45 L7.08 -114.82 L-5.6 -114.9 L0.82 -128.45" stroke="none" stroke-width="0" fill="#1e1e1e" fill-rule="evenodd"></path><path d="M0.82 -128.45 C2.66 -124.44, 4.5 -120.43, 7.08 -114.82 M0.82 -128.45 C2.75 -124.24, 4.68 -120.04, 7.08 -114.82 M7.08 -114.82 C3.98 -114.83, 0.89 -114.85, -5.6 -114.9 M7.08 -114.82 C2.51 -114.84, -2.05 -114.87, -5.6 -114.9 M-5.6 -114.9 C-3.41 -119.53, -1.21 -124.16, 0.82 -128.45 M-5.6 -114.9 C-3.29 -119.77, -0.98 -124.65, 0.82 -128.45 M0.82 -128.45 C0.82 -128.45, 0.82 -128.45, 0.82 -128.45 M0.82 -128.45 C0.82 -128.45, 0.82 -128.45, 0.82 -128.45" stroke="#1e1e1e" stroke-width="1" fill="none"></path></g></g><mask></mask></svg>